<svg width="15" height="15" viewBox="0 0 15 15" fill="none" xmlns="http://www.w3.org/2000/svg">
<path fill-rule="evenodd" clip-rule="evenodd" d="M13.5 7.5C13.5 4.19175 10.8082 1.5 7.5 1.5C4.19175 1.5 1.5 4.19175 1.5 7.5C1.5 10.8082 4.19175 13.5 7.5 13.5C10.8082 13.5 13.5 10.8082 13.5 7.5ZM15 7.5C15 11.6423 11.6423 15 7.5 15C3.35775 15 0 11.6423 0 7.5C0 3.35775 3.35775 0 7.5 0C11.6423 0 15 3.35775 15 7.5ZM12 8.25C12 8.664 11.664 9 11.25 9H8.25C7.42125 9 6.75 8.32875 6.75 7.5V3.75C6.75 3.336 7.086 3 7.5 3C7.914 3 8.25 3.336 8.25 3.75V6.75C8.25 7.1625 8.5875 7.5 9 7.5H11.25C11.664 7.5 12 7.836 12 8.25Z" fill="#B8BCCA"/>
</svg>
