<svg width="281" height="253" viewBox="0 0 281 253" fill="none" xmlns="http://www.w3.org/2000/svg">
<g clip-path="url(#clip0_5226_51200)">
<path d="M69.5796 64.1768C64.7508 49.7424 49.8391 41.72 40.0293 45.0017C30.2195 48.2834 23.1367 63.6637 27.9655 78.0981C32.4351 91.4589 45.9787 99.172 55.2956 97.7956C55.2284 97.9124 55.1842 98.0411 55.1653 98.1745L54.8805 100.551C54.8587 100.732 54.8837 100.915 54.9529 101.084C55.0222 101.253 55.1334 101.401 55.2761 101.515C55.4187 101.629 55.5881 101.704 55.768 101.734C55.948 101.764 56.1326 101.747 56.3044 101.686L61.1037 99.9646C61.2754 99.9031 61.4286 99.7986 61.5486 99.6612C61.6686 99.5238 61.7515 99.358 61.7894 99.1796C61.8273 99.0011 61.819 98.8159 61.7652 98.6416C61.7114 98.4673 61.614 98.3096 61.4821 98.1835L59.7521 96.5298C59.6906 96.4735 59.6227 96.4247 59.5497 96.3844C67.8596 91.9061 74.0589 77.5666 69.5796 64.1768Z" fill="#F2F2F2"/>
<path d="M52.0981 53.558C56.1081 55.6275 59.1706 59.1577 60.6533 63.4198C62.136 67.6819 61.9257 72.3506 60.0659 76.4622C59.6506 77.4076 61.1778 77.9047 61.5904 76.9655C63.5431 72.5168 63.7417 67.4943 62.1464 62.9053C60.5511 58.3162 57.2799 54.4999 52.9887 52.2218C52.083 51.7418 51.1856 53.0744 52.0981 53.558Z" fill="white"/>
<path d="M265.078 43.1377C260.249 28.7034 245.337 20.681 235.527 23.9627C225.718 27.2444 218.635 42.6246 223.464 57.059C227.933 70.4198 241.477 78.133 250.794 76.7565C250.726 76.8734 250.682 77.002 250.663 77.1355L250.378 79.5116C250.357 79.6927 250.382 79.8764 250.451 80.0452C250.52 80.214 250.631 80.3622 250.774 80.4759C250.917 80.5897 251.086 80.665 251.266 80.6948C251.446 80.7247 251.631 80.708 251.802 80.6465L256.602 78.9256C256.773 78.864 256.927 78.7596 257.047 78.6222C257.167 78.4848 257.25 78.3189 257.287 78.1405C257.325 77.962 257.317 77.7768 257.263 77.6025C257.209 77.4282 257.112 77.2705 256.98 77.1444L255.25 75.4908C255.189 75.4345 255.121 75.3856 255.048 75.3453C263.358 70.867 269.557 56.5276 265.078 43.1377Z" fill="#F2F2F2"/>
<path d="M247.596 32.5169C251.606 34.5865 254.669 38.1167 256.151 42.3788C257.634 46.6409 257.424 51.3096 255.564 55.4212C255.149 56.3666 256.676 56.8637 257.088 55.9245C259.041 51.4758 259.24 46.4533 257.644 41.8642C256.049 37.2752 252.778 33.4589 248.487 31.1807C247.581 30.7008 246.684 32.0334 247.596 32.5169Z" fill="white"/>
<path d="M151.548 19.9053C146.72 5.47095 131.808 -2.55145 121.998 0.730251C112.188 4.01195 105.105 19.3922 109.934 33.8266C114.404 47.1874 127.947 54.9006 137.264 53.5241C137.197 53.641 137.153 53.7696 137.134 53.903L136.849 56.2792C136.827 56.4603 136.852 56.644 136.922 56.8128C136.991 56.9815 137.102 57.1298 137.245 57.2435C137.387 57.3572 137.557 57.4326 137.737 57.4624C137.917 57.4923 138.101 57.4756 138.273 57.414L143.072 55.6932C143.244 55.6316 143.397 55.5271 143.517 55.3897C143.637 55.2523 143.72 55.0865 143.758 54.9081C143.796 54.7296 143.788 54.5444 143.734 54.3701C143.68 54.1958 143.583 54.0381 143.451 53.912L141.721 52.2583C141.659 52.2021 141.591 52.1532 141.518 52.1129C149.828 47.6346 156.028 33.2951 151.548 19.9053Z" fill="#F2F2F2"/>
<path d="M134.067 9.28646C138.077 11.356 141.139 14.8862 142.622 19.1483C144.105 23.4104 143.894 28.0791 142.035 32.1907C141.619 33.1361 143.147 33.6332 143.559 32.694C145.512 28.2453 145.71 23.2228 144.115 18.6338C142.52 14.0447 139.249 10.2285 134.957 7.95028C134.052 7.47032 133.154 8.80295 134.067 9.28646Z" fill="white"/>
<path d="M127.33 89.3613C127.965 89.3613 128.48 88.8463 128.48 88.2109C128.48 87.5756 127.965 87.0605 127.33 87.0605C126.695 87.0605 126.18 87.5756 126.18 88.2109C126.18 88.8463 126.695 89.3613 127.33 89.3613Z" fill="#CCCCCC"/>
<path d="M124.878 135.508C126.133 135.508 127.151 134.491 127.151 133.235C127.151 131.98 126.133 130.963 124.878 130.963C123.623 130.963 122.605 131.98 122.605 133.235C122.605 134.491 123.623 135.508 124.878 135.508Z" fill="#CCCCCC"/>
<path d="M86.8327 126.759C87.558 126.759 88.1459 126.171 88.1459 125.446C88.1459 124.721 87.558 124.133 86.8327 124.133C86.1075 124.133 85.5195 124.721 85.5195 125.446C85.5195 126.171 86.1075 126.759 86.8327 126.759Z" fill="#CCCCCC"/>
<path d="M106.781 105.256C107.567 105.256 108.204 104.62 108.204 103.834C108.204 103.049 107.567 102.412 106.781 102.412C105.996 102.412 105.359 103.049 105.359 103.834C105.359 104.62 105.996 105.256 106.781 105.256Z" fill="#CCCCCC"/>
<path d="M176.76 188.518C177.395 188.518 177.91 188.003 177.91 187.367C177.91 186.732 177.395 186.217 176.76 186.217C176.124 186.217 175.609 186.732 175.609 187.367C175.609 188.003 176.124 188.518 176.76 188.518Z" fill="#CCCCCC"/>
<path d="M139.085 164.862C140.34 164.862 141.358 163.844 141.358 162.589C141.358 161.334 140.34 160.316 139.085 160.316C137.83 160.316 136.812 161.334 136.812 162.589C136.812 163.844 137.83 164.862 139.085 164.862Z" fill="#CCCCCC"/>
<path d="M164.964 134.947C165.689 134.947 166.277 134.359 166.277 133.633C166.277 132.908 165.689 132.32 164.964 132.32C164.238 132.32 163.65 132.908 163.65 133.633C163.65 134.359 164.238 134.947 164.964 134.947Z" fill="#CCCCCC"/>
<path d="M173.6 163.17C174.385 163.17 175.022 162.534 175.022 161.748C175.022 160.963 174.385 160.326 173.6 160.326C172.814 160.326 172.178 160.963 172.178 161.748C172.178 162.534 172.814 163.17 173.6 163.17Z" fill="#CCCCCC"/>
<path d="M250.198 236.414C251.452 235.363 249.757 231.272 246.41 227.275C243.064 223.277 239.333 220.889 238.079 221.94C236.824 222.99 238.52 227.082 241.866 231.079C245.213 235.076 248.943 237.465 250.198 236.414Z" fill="#2F2E41"/>
<path d="M224.06 244.778C234.486 244.778 242.938 236.326 242.938 225.9C242.938 215.473 234.486 207.021 224.06 207.021C213.634 207.021 205.182 215.473 205.182 225.9C205.182 236.326 213.634 244.778 224.06 244.778Z" fill="#2F2E41"/>
<path d="M232.05 240.715H226.314V250.99H232.05V240.715Z" fill="#2F2E41"/>
<path d="M220.579 240.715H214.844V250.99H220.579V240.715Z" fill="#2F2E41"/>
<path d="M227.271 252.901C229.911 252.901 232.051 252.098 232.051 251.109C232.051 250.119 229.911 249.316 227.271 249.316C224.632 249.316 222.492 250.119 222.492 251.109C222.492 252.098 224.632 252.901 227.271 252.901Z" fill="#2F2E41"/>
<path d="M215.801 252.665C218.44 252.665 220.58 251.862 220.58 250.872C220.58 249.882 218.44 249.08 215.801 249.08C213.161 249.08 211.021 249.882 211.021 250.872C211.021 251.862 213.161 252.665 215.801 252.665Z" fill="#2F2E41"/>
<path d="M218.132 202.168C219.818 195.38 227.259 191.385 234.752 193.246C242.245 195.106 246.953 202.118 245.267 208.906C243.581 215.695 237.989 215.717 230.496 213.856C223.003 211.996 216.447 208.957 218.132 202.168Z" fill="#E6E6E6"/>
<path d="M211.325 221.186C212.026 219.707 208.776 216.698 204.066 214.464C199.356 212.23 194.969 211.617 194.268 213.096C193.567 214.575 196.816 217.584 201.526 219.818C206.237 222.052 210.623 222.665 211.325 221.186Z" fill="#2F2E41"/>
<path d="M221.237 228.209C224.713 228.209 227.531 225.391 227.531 221.915C227.531 218.439 224.713 215.621 221.237 215.621C217.761 215.621 214.943 218.439 214.943 221.915C214.943 225.391 217.761 228.209 221.237 228.209Z" fill="white"/>
<path d="M218.651 221.758C219.809 221.758 220.749 220.819 220.749 219.66C220.749 218.502 219.809 217.562 218.651 217.562C217.492 217.562 216.553 218.502 216.553 219.66C216.553 220.819 217.492 221.758 218.651 221.758Z" fill="#3F3D56"/>
<path d="M225.185 235.028C225.284 235.57 225.275 236.126 225.159 236.665C225.042 237.203 224.821 237.714 224.507 238.167C224.194 238.62 223.794 239.007 223.331 239.305C222.868 239.604 222.351 239.809 221.809 239.907C221.266 240.006 220.71 239.997 220.172 239.881C219.633 239.764 219.123 239.543 218.669 239.23C218.216 238.916 217.829 238.516 217.531 238.053C217.232 237.59 217.028 237.073 216.929 236.531L216.927 236.523C216.515 234.242 218.278 233.435 220.558 233.022C222.838 232.61 224.772 232.747 225.185 235.028Z" fill="white"/>
<path d="M68.855 212.701C70.7163 207.832 70.9858 203.411 69.4572 202.826C67.9285 202.242 65.1804 205.716 63.3192 210.585C61.458 215.455 61.1885 219.876 62.7171 220.46C64.2458 221.045 66.9938 217.571 68.855 212.701Z" fill="#2F2E41"/>
<path d="M48.6379 244.778C59.064 244.778 67.516 236.326 67.516 225.9C67.516 215.473 59.064 207.021 48.6379 207.021C38.2118 207.021 29.7598 215.473 29.7598 225.9C29.7598 236.326 38.2118 244.778 48.6379 244.778Z" fill="#2F2E41"/>
<path d="M45.7703 240.715H40.0352V250.99H45.7703V240.715Z" fill="#2F2E41"/>
<path d="M57.241 240.715H51.5059V250.99H57.241V240.715Z" fill="#2F2E41"/>
<path d="M44.8144 252.901C47.4539 252.901 49.5937 252.098 49.5937 251.109C49.5937 250.119 47.4539 249.316 44.8144 249.316C42.1749 249.316 40.0352 250.119 40.0352 251.109C40.0352 252.098 42.1749 252.901 44.8144 252.901Z" fill="#2F2E41"/>
<path d="M56.2851 252.665C58.9247 252.665 61.0644 251.862 61.0644 250.872C61.0644 249.882 58.9247 249.08 56.2851 249.08C53.6456 249.08 51.5059 249.882 51.5059 250.872C51.5059 251.862 53.6456 252.665 56.2851 252.665Z" fill="#2F2E41"/>
<path d="M49.1161 227.572C52.6794 227.572 55.5681 224.683 55.5681 221.12C55.5681 217.557 52.6794 214.668 49.1161 214.668C45.5527 214.668 42.6641 217.557 42.6641 221.12C42.6641 224.683 45.5527 227.572 49.1161 227.572Z" fill="white"/>
<path d="M49.1155 223.27C50.3033 223.27 51.2662 222.307 51.2662 221.119C51.2662 219.932 50.3033 218.969 49.1155 218.969C47.9277 218.969 46.9648 219.932 46.9648 221.119C46.9648 222.307 47.9277 223.27 49.1155 223.27Z" fill="#3F3D56"/>
<path d="M30.326 208.344C28.8016 201.518 33.6743 194.62 41.2093 192.937C48.7443 191.255 56.0884 195.425 57.6127 202.252C59.137 209.078 54.1433 211.596 46.6083 213.278C39.0732 214.961 31.8503 215.171 30.326 208.344Z" fill="#E6E6E6"/>
<path d="M35.9029 221.186C36.6042 219.707 33.3544 216.698 28.6443 214.464C23.9341 212.23 19.5473 211.617 18.846 213.096C18.1447 214.575 21.3945 217.584 26.1046 219.818C30.8148 222.052 35.2016 222.665 35.9029 221.186Z" fill="#2F2E41"/>
<path d="M39.3652 232.709C39.3652 234.556 44.1226 238.205 49.4017 238.205C54.6807 238.205 59.6304 233.003 59.6304 231.156C59.6304 229.308 54.6807 231.514 49.4017 231.514C44.1227 231.514 39.3652 230.861 39.3652 232.709Z" fill="white"/>
<path d="M138.812 226.805C149.238 226.805 157.69 218.353 157.69 207.927C157.69 197.501 149.238 189.049 138.812 189.049C128.386 189.049 119.934 197.501 119.934 207.927C119.934 218.353 128.386 226.805 138.812 226.805Z" fill="#2F2E41"/>
<path d="M135.944 222.742H130.209V233.018H135.944V222.742Z" fill="#2F2E41"/>
<path d="M147.415 222.742H141.68V233.018H147.415V222.742Z" fill="#2F2E41"/>
<path d="M134.988 234.93C137.628 234.93 139.768 234.128 139.768 233.138C139.768 232.148 137.628 231.346 134.988 231.346C132.349 231.346 130.209 232.148 130.209 233.138C130.209 234.128 132.349 234.93 134.988 234.93Z" fill="#2F2E41"/>
<path d="M146.459 234.692C149.098 234.692 151.238 233.889 151.238 232.9C151.238 231.91 149.098 231.107 146.459 231.107C143.819 231.107 141.68 231.91 141.68 232.9C141.68 233.889 143.819 234.692 146.459 234.692Z" fill="#2F2E41"/>
<path d="M120.5 190.372C118.975 183.545 123.848 176.647 131.383 174.965C138.918 173.282 146.262 177.452 147.787 184.279C149.311 191.105 144.317 193.623 136.782 195.306C129.247 196.988 122.024 197.198 120.5 190.372Z" fill="#6C63FF"/>
<path d="M159.156 199.677C163.244 195.585 165.517 191.228 164.233 189.945C162.948 188.661 158.593 190.938 154.504 195.029C150.416 199.121 148.143 203.478 149.427 204.761C150.712 206.045 155.067 203.768 159.156 199.677Z" fill="#2F2E41"/>
<path d="M123.596 206.077C124.88 204.793 122.607 200.436 118.519 196.345C114.431 192.253 110.075 189.977 108.791 191.26C107.506 192.544 109.779 196.901 113.868 200.992C117.956 205.084 122.311 207.36 123.596 206.077Z" fill="#2F2E41"/>
<path d="M253.583 88.1157C252.956 68.7588 239.698 53.4797 223.971 53.9889C188.968 55.0261 188.114 119.214 221.908 123.825L221.192 129.513L231.629 129.175L230.547 123.545C244.142 120.541 254.151 105.665 253.583 88.1157Z" fill="#C07654"/>
<path d="M206.564 98.8475L202.621 98.9751C201.076 91.6269 200.831 84.0644 201.898 76.6316L205.841 76.5039C204.385 84.2845 204.626 91.7324 206.564 98.8475Z" fill="white"/>
<path d="M232.14 123.457L220.311 123.84L220.396 126.469L232.225 126.086L232.14 123.457Z" fill="#3F3D56"/>
<path d="M197.783 224.111L196.592 223.554L225.878 124.238L227.069 124.796L197.783 224.111Z" fill="#3F3D56"/>
<path d="M277.821 104.483C284.973 86.4851 278.917 67.184 264.293 61.373C231.786 48.3519 205.38 106.863 234.525 124.581L231.599 129.51L241.303 133.366L242.558 127.773C256.222 130.444 271.337 120.801 277.821 104.483Z" fill="#6C63FF"/>
<path d="M230.428 95.5562L226.762 94.0993C228.278 86.7448 231.072 79.7133 235.017 73.3242L238.684 74.7811C234.242 81.3337 231.491 88.2587 230.428 95.5562Z" fill="white"/>
<path d="M233.055 123.958L232.084 126.402L243.083 130.773L244.054 128.329L233.055 123.958Z" fill="#3F3D56"/>
<path d="M197.551 221.496L196.408 220.845L237.296 127.537L238.438 128.187L197.551 221.496Z" fill="#3F3D56"/>
<path d="M55.578 89.3648C47.84 71.6108 29.8732 62.315 15.4481 68.6021C-16.6917 82.5053 6.24256 142.463 39.3472 134.254L40.7849 139.803L50.3579 135.631L47.2716 130.8C58.7923 122.983 62.5934 105.461 55.578 89.3648Z" fill="#6C63FF"/>
<path d="M15.857 116.72L12.2405 118.296C8.08787 112.04 5.06477 105.104 3.30859 97.8028L6.92508 96.2266C8.44818 103.994 11.4255 110.826 15.857 116.72Z" fill="white"/>
<path d="M48.7186 130.131L37.8691 134.859L38.92 137.27L49.7694 132.542L48.7186 130.131Z" fill="#3F3D56"/>
<path d="M73.8207 224.366C73.6515 224.408 73.4725 224.381 73.3232 224.291C73.1738 224.201 73.0664 224.056 73.0244 223.886L44.4414 133.318L45.7177 133.002L74.3006 223.57C74.3214 223.654 74.3255 223.741 74.3126 223.826C74.2998 223.911 74.2702 223.993 74.2256 224.067C74.1811 224.141 74.1224 224.206 74.0529 224.257C73.9834 224.308 73.9045 224.345 73.8207 224.366Z" fill="#3F3D56"/>
<path d="M81.4607 253H12.6415C12.5252 253 12.4137 252.954 12.3315 252.871C12.2493 252.789 12.2031 252.678 12.2031 252.561C12.2031 252.445 12.2493 252.334 12.3315 252.251C12.4137 252.169 12.5252 252.123 12.6415 252.123H81.4607C81.577 252.123 81.6885 252.169 81.7707 252.251C81.8529 252.334 81.899 252.445 81.899 252.561C81.899 252.678 81.8529 252.789 81.7707 252.871C81.6885 252.954 81.577 253 81.4607 253Z" fill="#CCCCCC"/>
<path d="M256.357 253H187.538C187.422 253 187.31 252.954 187.228 252.871C187.146 252.789 187.1 252.678 187.1 252.561C187.1 252.445 187.146 252.334 187.228 252.251C187.31 252.169 187.422 252.123 187.538 252.123H256.357C256.473 252.123 256.585 252.169 256.667 252.251C256.749 252.334 256.796 252.445 256.796 252.561C256.796 252.678 256.749 252.789 256.667 252.871C256.585 252.954 256.473 253 256.357 253Z" fill="#CCCCCC"/>
<path d="M174.388 235.027H105.569C105.453 235.027 105.341 234.981 105.259 234.899C105.177 234.816 105.131 234.705 105.131 234.589C105.131 234.472 105.177 234.361 105.259 234.279C105.341 234.197 105.453 234.15 105.569 234.15H174.388C174.505 234.15 174.616 234.197 174.698 234.279C174.781 234.361 174.827 234.472 174.827 234.589C174.827 234.705 174.781 234.816 174.698 234.899C174.616 234.981 174.505 235.027 174.388 235.027Z" fill="#CCCCCC"/>
<path d="M138.018 211.705C141.582 211.705 144.47 208.816 144.47 205.253C144.47 201.689 141.582 198.801 138.018 198.801C134.455 198.801 131.566 201.689 131.566 205.253C131.566 208.816 134.455 211.705 138.018 211.705Z" fill="white"/>
<path d="M138.018 207.403C139.206 207.403 140.169 206.44 140.169 205.252C140.169 204.064 139.206 203.102 138.018 203.102C136.83 203.102 135.867 204.064 135.867 205.252C135.867 206.44 136.83 207.403 138.018 207.403Z" fill="#3F3D56"/>
<path d="M143.14 217.186C143.34 218.281 143.096 219.41 142.463 220.325C141.829 221.24 140.858 221.866 139.764 222.065C138.669 222.265 137.54 222.021 136.624 221.388C135.709 220.755 135.083 219.784 134.884 218.689L134.883 218.681C134.47 216.4 136.233 215.593 138.513 215.181C140.793 214.768 142.727 214.906 143.14 217.186Z" fill="white"/>
</g>
<defs>
<clipPath id="clip0_5226_51200">
<rect width="280.825" height="253" fill="white"/>
</clipPath>
</defs>
</svg>
