<svg width="180" height="160" viewBox="0 0 180 160" fill="none" xmlns="http://www.w3.org/2000/svg">
<g clip-path="url(#clip0_5226_56877)">
<path d="M179.321 88.2464H178.776C178.239 88.2464 160.936 88.3566 160.912 88.3566H160.867C160.634 88.3566 159.852 88.329 159.852 87.5589C159.852 86.8389 160.592 86.7551 160.956 86.7551C161.067 86.7551 161.143 86.7628 161.154 86.7628C161.288 86.7628 161.421 86.7646 161.555 86.7646C161.579 86.7646 177.932 86.6815 179.069 86.6395C177.722 78.0302 176.571 69.4782 175.043 60.9182C170.486 61.2214 157.692 62.1011 157.456 62.1011C156.851 62.1011 156.553 61.7419 156.553 61.3205C156.553 59.7288 168.426 60.2152 174.779 59.3107C172.382 37.2841 174.933 32.9048 161.248 19.6026C161.193 19.562 161.133 19.5274 161.071 19.4993C149.433 27.4973 148.896 28.5037 148.109 28.5037C147.908 28.4974 147.718 28.4139 147.577 28.2707C147.436 28.1275 147.356 27.9355 147.353 27.7347C147.353 26.8493 152.744 23.7045 159.899 18.3631C149.912 8.84231 130.893 4.56567 130.867 4.56257C125.954 17.9164 126.353 19.5799 125.187 19.5799C124.984 19.5839 124.788 19.5072 124.642 19.3667C124.496 19.2263 124.411 19.0335 124.407 18.8308C124.407 18.8168 124.407 18.8029 124.408 18.7889C124.408 18.3471 128.551 6.5938 129.273 4.22373C122.746 3.04025 111.802 0.00954112 95.0553 0.00954112C94.454 -0.0115082 93.8519 0.00227827 93.2522 0.0508314C93.2522 0.21367 93.2499 0.364638 93.2499 0.511218C93.2499 0.865283 93.6385 13.1048 93.6385 13.3143C93.6385 14.1698 93.045 14.2175 92.8623 14.2175C91.4001 14.2175 92.3358 11.1855 91.621 0.0779282C91.4979 0.0779282 91.3923 0.0756056 91.2932 0.0756056C74.5191 0.0756056 63.7859 7.81057 63.5446 7.97238C65.4329 11.7695 72.388 24.3928 72.388 24.9375C72.3836 25.1424 72.2995 25.3374 72.1535 25.4811C72.0075 25.6248 71.8111 25.7058 71.6063 25.7068C70.5983 25.7068 65.8514 15.2526 62.1846 8.86476C51.5219 16.1739 42.4685 31.9538 41.86 33.3781C51.1012 45.0346 51.4806 44.9706 51.4806 45.5897C51.4761 45.7939 51.3928 45.9886 51.2482 46.133C51.1036 46.2774 50.9089 46.3603 50.7046 46.3646C49.8966 46.3646 47.845 43.0384 41.0377 34.8934C35.9954 42.8255 32.9993 59.0962 32.9221 66.1419C47.6341 65.0064 65.2398 64.1117 65.254 64.1117C65.4222 64.1117 65.4886 64.2436 65.8945 64.2436C66.2767 64.2436 66.5874 64.1207 67.03 64.1207C73.5505 64.1207 75.4336 85.0178 75.5742 85.7667C79.3299 86.0952 79.9025 86.2446 79.9025 86.8872C79.8994 86.9761 79.8788 87.0635 79.8419 87.1444C79.805 87.2254 79.7525 87.2983 79.6874 87.3589C79.6223 87.4196 79.5459 87.4668 79.4626 87.498C79.3793 87.5291 79.2906 87.5435 79.2017 87.5404L79.1939 87.5401H79.1753C79.1518 87.5401 79.0184 87.5081 75.7226 87.0756C75.7226 87.2588 75.7175 87.4072 75.7175 87.5422C75.7175 87.9713 76.0641 91.7073 76.0641 96.8469V97.8193C77.2623 96.744 75.5051 97.6859 84.8112 90.6934C83.6088 87.0941 81.4168 84.2714 81.4168 79.4872C81.4168 79.4614 81.8078 66.6144 84.0922 64.3837C84.2411 64.2463 84.3577 64.0775 84.4336 63.8896C84.5094 63.7017 84.5427 63.4993 84.5309 63.297C84.5309 63.0691 84.4728 62.3587 84.4728 61.1233C84.4728 45.3556 93.6032 32.8327 109.373 29.9115C111.872 29.2613 114.444 28.9343 117.027 28.9383C121.032 28.9383 131.491 29.4108 141.016 39.6436C148.493 47.6782 149.811 53.5063 150.461 73.7971C150.671 77.5729 150.714 81.096 150.73 84.1161C150.789 86.714 150.85 89.4923 150.919 92.474C150.933 92.6049 150.949 92.7285 150.966 92.8456C151.813 94.153 167.16 103.621 173.503 119.013C179.096 110.818 179.595 96.4634 179.641 96.0412V92.2054C179.502 90.5711 179.59 91.6807 179.321 88.2464ZM39.0922 64.0059C39.0922 64.3535 38.9374 64.8059 38.4246 64.8059C38.3265 64.8075 38.2294 64.7859 38.1411 64.743C38.0529 64.7 37.976 64.6369 37.9167 64.5587C37.7851 64.6421 37.6337 64.6891 37.478 64.6949C36.5271 64.6949 36.7227 64.4242 35.8811 54.1783C35.876 54.1133 35.8721 54.0469 35.8721 53.9809C35.8597 53.8713 35.8709 53.7604 35.9049 53.6555C35.9388 53.5506 35.9948 53.4542 36.0691 53.3727C36.1433 53.2911 36.2341 53.2264 36.3354 53.1829C36.4367 53.1393 36.5461 53.1178 36.6563 53.12C37.0256 53.12 37.2228 53.1587 37.3727 53.7801C37.4264 53.6836 37.5066 53.6046 37.6039 53.5523C37.7011 53.5 37.8113 53.4767 37.9214 53.4851C38.7438 53.4851 38.5898 54.0619 38.8388 59.2513C39.0806 63.7404 39.0912 63.9236 39.0912 63.9871L39.0922 64.0059ZM72.5441 51.1734C72.534 51.1734 72.5219 51.1765 72.5129 51.1765C71.7699 51.1765 71.0486 49.785 71.0486 48.8281C71.0486 48.271 71.2468 47.4655 71.2468 45.9615C71.2468 44.9218 71.1972 44.7644 70.8809 44.1615C70.7211 43.8573 70.5273 43.7414 70.3242 43.7414C70.0468 43.7758 69.7908 43.908 69.6021 44.1142C69.4134 44.3205 69.3045 44.5872 69.2948 44.8666C69.2948 45.313 69.5 45.4506 69.5 45.8173C69.4949 46.0284 69.4061 46.2288 69.2532 46.3744C69.1004 46.5201 68.8959 46.599 68.6848 46.5939L68.6723 46.5935H68.6605C68.4699 46.589 68.2861 46.5215 68.1379 46.4015C68.0662 46.4302 67.9898 46.4452 67.9126 46.4457C67.174 46.4457 67.0907 45.2939 67.0907 45.049C67.0907 42.4214 69.9668 41.5417 70.8434 41.5417C72.1219 41.5417 73.4904 42.9868 73.4904 45.7391C73.4904 46.8444 73.2886 47.2328 73.2886 48.3971C73.2886 49.6444 73.5105 50.2273 73.5105 50.5574C73.5105 51.0818 73.1701 51.2684 72.9033 51.2684C72.7769 51.2723 72.6521 51.2393 72.5441 51.1734L72.5441 51.1734ZM74.4659 53.64C74.3173 53.7416 74.1414 53.7961 73.9614 53.7964C73.7469 53.7942 73.5421 53.7073 73.3914 53.5547C73.2408 53.4021 73.1566 53.1961 73.1572 52.9817C73.1565 52.8796 73.1758 52.7783 73.2142 52.6837C73.2526 52.589 73.3092 52.5029 73.3809 52.4302C73.4525 52.3574 73.5378 52.2995 73.6318 52.2597C73.7259 52.2199 73.8268 52.1991 73.9289 52.1983C73.9516 52.1981 73.9742 52.1989 73.9967 52.2008C74.1231 52.1965 74.2488 52.2209 74.3644 52.2722C74.48 52.3234 74.5824 52.4002 74.6641 52.4968C74.7834 52.53 74.8885 52.6015 74.9631 52.7004C75.0378 52.7993 75.0778 52.92 75.077 53.0439C75.0729 53.2033 75.0067 53.3548 74.8926 53.4661C74.7784 53.5774 74.6253 53.6398 74.4659 53.64V53.64ZM102.496 28.5277C102.411 28.5283 102.326 28.5133 102.246 28.4833C102.147 28.5094 102.045 28.5229 101.943 28.5236C101.067 28.5236 101.043 27.8555 101.043 27.7517V27.7396C101.043 27.2684 101.396 26.9636 101.947 26.9636C102.1 26.9541 102.253 26.9846 102.391 27.052C102.529 27.1195 102.647 27.2216 102.733 27.3484C102.865 27.372 102.984 27.4418 103.068 27.5451C103.153 27.6484 103.198 27.7785 103.195 27.912C103.184 28.0863 103.104 28.2491 102.973 28.3646C102.842 28.48 102.671 28.5387 102.496 28.5277H102.496ZM104.187 22.3992C102.614 25.6942 102.686 26.1623 102.084 26.1623C102.023 26.0344 101.922 25.9301 101.796 25.8653C101.67 25.8006 101.527 25.7791 101.387 25.8041C101.18 25.8083 100.98 25.7301 100.831 25.5868C100.682 25.4435 100.596 25.2468 100.591 25.0399L100.591 25.0299C100.591 24.2157 102.46 20.7401 102.46 19.6521C102.46 19.2908 102.439 18.8761 102.066 18.8761C101.749 18.8761 101.241 19.2867 100.817 19.5879C100.71 19.6653 100.571 20.0686 100.094 20.0686C99.8993 20.0781 99.7087 20.0112 99.5626 19.8822C99.4164 19.7533 99.3264 19.5724 99.3116 19.378C99.3205 19.1671 99.3821 18.9617 99.4907 18.7806C99.4842 18.7473 99.4806 18.7134 99.4801 18.6795C99.4801 18.1375 100.559 16.8472 102.346 16.8472C104.548 16.8472 104.611 18.8498 104.8 19.7566C104.782 20.6706 104.573 21.5707 104.187 22.3992ZM153.521 49.9943C153.359 49.996 153.2 49.949 153.064 49.8591C152.929 49.7693 152.823 49.6409 152.762 49.4906C152.586 49.4572 152.427 49.3641 152.311 49.2271C152.196 49.09 152.131 48.9173 152.128 48.738C152.128 48.2867 152.624 47.8444 153.127 47.8444C153.353 47.8578 153.565 47.9564 153.721 48.1203C153.876 48.2841 153.964 48.5011 153.966 48.7272C153.966 48.799 153.958 48.8705 153.94 48.9401C154.014 48.9912 154.075 49.0589 154.118 49.1377C154.161 49.2165 154.185 49.3043 154.187 49.3941C154.187 49.4738 154.171 49.5527 154.139 49.6262C154.108 49.6997 154.063 49.7663 154.006 49.8223C153.95 49.8783 153.882 49.9226 153.808 49.9526C153.734 49.9826 153.655 49.9977 153.576 49.9971C153.557 49.997 153.539 49.996 153.521 49.9943ZM154.256 46.3708C154.137 46.3682 154.02 46.3315 153.921 46.265C153.821 46.1986 153.742 46.1051 153.694 45.9956C153.232 45.7324 153.173 44.9801 153.173 44.7912C153.173 42.6903 155.912 40.8126 155.912 39.8364C155.914 39.7666 155.902 39.697 155.875 39.6324C155.849 39.5678 155.809 39.5095 155.758 39.4615C155.707 39.4135 155.647 39.3769 155.581 39.354C155.515 39.3311 155.445 39.3225 155.375 39.3288C154.861 39.3288 153.705 39.9365 153.39 39.9365C153.189 39.9357 152.996 39.8551 152.854 39.7122C152.712 39.5694 152.633 39.376 152.633 39.1747C152.641 39.0323 152.683 38.8938 152.755 38.7709C152.827 38.6479 152.928 38.544 153.048 38.4679C153.104 38.1373 153.747 37.2663 155.5 37.2188C158.73 37.2209 158.852 39.8872 158.852 39.9879C158.852 41.8508 156.454 43.9239 155.791 44.5091C154.774 45.408 155.044 46.3708 154.256 46.3708L154.256 46.3708ZM66.4228 109.219C65.3954 111.126 58.6674 118.785 56.6068 138.698C53.4907 137.97 50.4866 136.826 47.6754 135.298C47.7423 126.819 47.8094 118.328 47.8767 109.779L66.4228 109.219ZM34.118 121.152C34.118 124.405 34.1059 123.906 34.0349 124.1C30.6504 120.134 28.6533 115.604 27.8672 110.436L34.1144 110.191V112.241C34.1147 116.685 34.118 119.439 34.118 121.152Z" fill="#EEEAFB"/>
<path d="M95.5249 120.157C86.9641 115.976 87.4699 113.071 85.8908 107.46C85.656 107.46 85.424 107.455 85.194 107.455C84.2224 107.455 71.1667 107.981 71.1422 107.981C71.0131 107.981 70.9801 107.977 70.9215 107.977C70.3249 107.977 58.9701 122.55 58.9701 142.808C58.9701 150.534 60.7164 155.69 61.3561 157.843L60.055 158C59.7791 157.24 57.6534 151.419 57.6534 142.756C57.6534 124.023 67.0315 110.925 68.776 108.064L46.247 108.893C45.7308 115.467 46.5378 158.812 45.0555 158.812C44.6248 158.812 44.377 158.522 44.377 157.767C44.377 157.707 44.8449 111.65 44.8449 109.492V109.062C44.5305 109.028 44.2141 109.016 43.8981 109.027C41.897 109.027 37.4431 109.191 36.8743 109.32V109.809C36.8743 111.036 36.6968 158.682 36.6968 158.709V158.88C36.6968 158.884 36.6986 158.911 36.6986 158.954C36.6986 159.176 36.647 159.818 36.0276 159.818C35.3925 159.818 35.368 159.101 35.368 158.955V158.931C35.368 158.854 35.5262 110.226 35.5262 109.894V109.309C35.3662 109.309 35.2253 109.306 35.0913 109.306C34.7639 109.306 10.601 110.235 9.93213 110.235C9.71458 110.235 9.21497 110.226 9.12129 109.688C8.38684 105.475 7.66322 102.62 7.66322 95.5742C7.66322 95.0797 7.6658 94.9708 7.6658 94.6663V94.1553C7.38013 94.226 5.16413 94.6457 2.2511 96.9597C0.551484 98.3096 1.71148 99.1791 0.63071 99.1791C0.127484 99.1791 0 98.6155 0 98.3636C0 95.0346 7.69032 92.6965 7.7138 92.6805C7.88129 90.2611 8.46581 77.3711 13.3092 68.6503C14.393 66.7001 65.2302 64.113 65.2544 64.113C65.4227 64.113 65.489 64.2449 65.895 64.2449C66.2771 64.2449 66.5879 64.122 67.0304 64.122C73.5509 64.122 75.434 85.0191 75.5747 85.768C79.3303 86.0965 79.9029 86.2459 79.9029 86.8885C79.8966 87.068 79.8193 87.2377 79.6879 87.3602C79.5564 87.4827 79.3817 87.548 79.2022 87.5417L79.1943 87.5414H79.1757C79.1522 87.5414 79.0188 87.5094 75.7231 87.0769C75.7231 87.2601 75.7179 87.4085 75.7179 87.5435C75.7179 87.9726 76.0645 91.7086 76.0645 96.8482V99.3179C78.6155 97.6147 78.2735 95.6983 80.5889 95.1373C81.7437 94.857 83.3592 93.0862 86.329 91.5357C86.3333 91.4523 86.3356 91.3677 86.3357 91.282C86.3357 87.0712 82.8366 84.8374 82.8366 80.9561C82.8366 68.6488 83.6684 65.5259 85.6575 64.7922C85.6575 64.6284 85.6606 64.4756 85.6606 64.3277C85.6606 63.9997 85.6289 63.5755 85.6289 62.5912C85.6289 44.9257 98.6583 28.9414 117.026 28.9414C121.031 28.9414 131.491 29.4139 141.015 39.6467C150.429 49.7613 150.08 56.376 150.924 92.7564C150.95 93.8534 176.21 108.642 176.21 132.312C176.21 151.819 158.45 157.356 146.949 157.356C115.176 157.356 93.1331 128.682 93.1331 122.882C93.1324 122.448 93.2147 122.525 95.5249 120.157ZM136.18 120.455C136.18 119.917 136.19 119.37 136.19 118.804C134.959 118.498 104.007 113.502 103.921 113.502C103.81 113.502 103.701 113.527 103.6 113.575C103.5 113.623 103.412 113.692 103.342 113.778C94.9401 122.747 94.6196 122.927 94.6196 123.201C94.6196 123.223 94.6219 123.247 94.6219 123.276C94.6219 127.812 116.179 156.013 146.969 156.013C174.51 156.013 174.898 134.342 174.898 132.219C174.898 113.86 157.057 98.4645 151.097 95.0175C150.924 95.9607 150.811 96.0586 149.869 96.1158C149.844 96.1174 135.885 96.6085 134.602 96.6085C134.021 96.6085 133.434 96.5997 132.836 96.5997C125.485 110.494 112.47 110.895 110.63 110.895C110.518 110.895 110.447 110.893 110.422 110.893C101.32 110.893 98.5677 104.773 98.3582 104.519C99.303 107.193 99.3388 107.205 102.616 112.423C102.722 112.261 102.866 112.127 103.034 112.031C103.202 111.936 103.391 111.882 103.585 111.873C103.609 111.873 133.367 116.815 136.399 117.141C137.269 113.278 138.056 110.881 139.883 104.976C140.026 104.514 140.231 104.227 140.59 104.227C140.662 104.228 140.733 104.243 140.798 104.271C140.864 104.3 140.924 104.341 140.974 104.392C141.023 104.443 141.063 104.504 141.089 104.571C141.116 104.637 141.129 104.708 141.128 104.78C141.127 104.798 141.126 104.815 141.124 104.833C141.124 105.363 138.098 115.291 137.706 117.671C138.91 118.096 147.595 120.424 147.595 126.48C147.595 128.823 145.862 131.857 142.512 131.857C136.66 131.857 136.18 122.394 136.18 120.455H136.18ZM104.023 43.8518C95.463 46.9966 89.9455 59.5786 89.9455 70.3982C89.9455 71.7987 90.1094 73.202 90.1778 74.6046C90.1928 74.9071 90.0764 76.0882 93.7066 76.0882C94.4916 76.0882 95.1499 76.0075 95.7027 76.0075C98.2833 76.0075 98.5757 77.7664 98.8266 97.7073C98.8485 99.4547 101.536 103.273 109.101 103.273C123.393 103.273 132.498 92.2875 132.498 89.3014C132.498 89.2743 131.683 67.6418 131.683 67.4813C131.683 66.7587 131.999 66.5726 132.367 66.5726C133.283 66.5726 132.931 67.7311 133.189 71.0235H134.639C134.761 69.8173 134.695 68.9192 135.449 68.9192C135.944 68.9192 136.096 69.3277 136.096 69.6647C136.096 69.8864 136.071 69.8521 136.071 70.3713V70.7804C136.816 70.668 137.54 70.4417 138.216 70.1094C138.381 70.0264 138.525 69.9066 138.636 69.7593C138.747 69.612 138.822 69.4411 138.856 69.2598C139.04 68.3824 139.299 64.2198 139.299 62.8552C139.299 49.6841 138.679 49.3997 136.594 49.3997C133.697 49.3997 132.351 52.4464 132.322 54.2689C132.21 61.0023 132.512 61.8653 131.043 61.8653C126.687 61.8653 124.485 58.3515 119.275 54.7569C117.155 53.2931 108.211 56.2023 104.023 43.8519V43.8518ZM34.9582 90.4996C34.9766 90.4595 34.9922 90.4182 35.0049 90.376C34.8637 89.8656 34.7829 89.3403 34.7641 88.8111C34.7641 85.1419 39.985 81.4144 43.8996 81.4144C46.5972 81.4144 47.0542 83.3311 47.0542 84.1128C47.0542 88.7731 38.0994 91.1786 37.5832 91.3587C37.6256 91.378 38.6114 92.0038 41.1234 92.0038C45.6493 92.0038 55.3246 89.626 58.6426 88.3832C58.6619 88.2245 58.6857 88.0918 58.6942 87.9579C59.7781 69.7298 63.8813 66.3285 64.0955 65.5538C62.0377 65.6534 19.6274 68.4149 15.4666 68.6371C13.0116 68.7682 9.11975 84.1468 9.11975 92.0436C9.11975 92.1757 9.12311 92.3133 9.12311 92.466C22.4808 90.8405 27.3822 91.7543 34.9582 90.4996H34.9582ZM58.5344 94.0214C58.5344 92.6318 58.557 91.2382 58.6021 89.8407C58.4119 89.896 47.3081 93.361 40.9492 93.361C36.6434 93.361 36.496 91.7706 35.5941 91.7706C35.5698 91.7706 12.8036 93.3029 9.03562 93.857C9.02014 94.5259 9.01223 95.1932 9.01188 95.8588C9.01188 100.246 9.36982 104.572 10.3683 108.894L59.2715 107.087C58.7721 102.75 58.5261 98.3873 58.5344 94.0214V94.0214ZM89.5179 76.6408C89.472 76.7561 89.4511 76.777 89.4511 76.8193C89.4511 79.5948 95.041 79.8722 95.041 87.0129C95.041 87.1303 95.0395 87.1569 95.0395 87.2593C95.0395 88.0777 95.1716 89.1432 95.1716 89.3853C95.1808 89.4705 95.1717 89.5566 95.145 89.638C95.1182 89.7194 95.0744 89.7942 95.0165 89.8573C94.9586 89.9205 94.8878 89.9705 94.809 90.0041C94.7302 90.0378 94.6451 90.0542 94.5595 90.0524C93.3889 90.0524 93.8673 88.2222 93.6281 86.0291C92.9928 80.2026 88.6317 80.7205 88.1701 77.3117C87.9249 75.5027 87.7644 66.6147 85.9076 66.1752C85.4802 66.5068 84.1928 67.5368 84.1928 81.1749C84.1928 84.0198 86.623 84.9716 87.7182 91.1267C90.9605 91.4015 94.1677 91.6911 97.4302 91.9427V91.5375C97.4302 88.4124 96.8831 79.3233 96.5762 77.9117C96.5593 77.7775 96.4903 77.6552 96.3841 77.5713C96.2779 77.4874 96.143 77.4486 96.0085 77.4632C95.9845 77.4632 95.7881 77.4658 95.5125 77.4658C92.0096 77.4658 91.4952 77.1497 89.5179 76.6408L89.5179 76.6408ZM101.716 113.562C101.107 112.418 98.6142 108.617 98.2751 107.855C94.3076 98.9473 94.8779 98.8704 91.5228 98.8704H91.3422C90.5621 98.8704 89.8173 98.9843 88.8993 98.9843C87.4689 98.9843 84.9698 98.5264 84.1337 98.5264H84.0116C83.7654 98.5264 83.4439 98.5523 83.4439 98.8926C83.4441 98.929 83.4475 98.9653 83.4542 99.001C83.617 99.9081 83.6431 100.173 84.1827 100.295C91.9654 102.045 91.9479 102.71 93.6694 109.209C94.3373 111.731 95.0645 111.356 95.0645 112.008C95.0593 112.179 94.9887 112.341 94.8673 112.462C94.7459 112.582 94.583 112.651 94.4121 112.655C92.3094 112.655 92.0379 105.031 89.8929 103.651C89.8929 103.891 89.8911 104.09 89.8911 104.274C89.8911 104.988 89.937 106.186 89.937 106.206C89.937 106.844 89.0942 107.348 88.3997 107.348C88.2746 107.348 88.1097 107.333 87.9024 107.333C87.6457 107.326 87.3898 107.367 87.1484 107.454C88.6968 116.64 94.1089 118.03 96.4968 119.106L101.716 113.562ZM60.5241 106.019L88.6426 105.619V102.881C87.7339 102.557 84.5104 101.609 84.3641 101.609C83.9817 101.609 84.0867 101.942 82.8596 101.942C82.6903 101.942 71.9984 101.741 65.424 101.741C62.5618 101.741 61.0183 101.768 60.6439 101.768H60.1383C60.2196 103.221 60.3249 104.597 60.5244 106.019H60.5241ZM137.587 119.126C137.509 119.568 137.483 120.018 137.511 120.466C137.511 123.943 138.434 130.499 142.601 130.499C145.23 130.499 146.246 127.897 146.246 126.488C146.246 123.838 142.987 120.224 137.587 119.126L137.587 119.126ZM97.8671 103.563C97.8874 103.527 97.9046 103.489 97.9187 103.45C97.5086 102.211 97.2887 100.918 97.2666 99.6137C97.2666 97.9202 97.4846 98.5156 97.4846 95.9104C97.4846 93.3205 97.4769 93.8168 97.4351 93.321C96.4738 93.2026 92.0462 92.8217 86.8328 92.4258C86.2369 93.2534 84.8947 93.7935 83.7618 94.719C83.8372 94.7863 83.8023 94.7928 83.9437 94.7928H84.0823C84.3285 94.7928 85.4209 94.7285 86.7365 94.7285C88.2975 94.7285 92.0152 94.8867 92.8609 95.6833C94.6441 97.3636 94.4431 97.9468 94.7448 98.135C95.8725 98.8482 96.1226 99.9718 97.8671 103.563L97.8671 103.563ZM36.1025 88.8761C36.1034 89.3286 36.2121 89.7744 36.4196 90.1765C39.8196 89.6937 45.6841 86.8908 45.6841 84.0532C45.6841 82.7951 44.399 82.7572 43.7745 82.7572C40.5768 82.7571 36.1025 86.0294 36.1025 88.8761L36.1025 88.8761ZM82.3507 100.073C82.2568 99.657 82.1964 99.2342 82.1701 98.8085C82.1701 97.2575 83.649 97.2003 84.0576 97.2003H84.1337C85.2981 97.2003 86.8519 97.6544 88.919 97.6544C90.0232 97.6544 90.0457 97.5489 91.0351 97.5489C91.4738 97.5489 91.9151 97.5695 92.3541 97.5695H92.8085C92.3556 96.8021 92.0748 96.5724 91.4315 96.4673C90.1275 96.2265 88.8061 96.0916 87.4803 96.064C80.8674 96.064 79.5061 96.4421 79.5061 98.071C79.5066 99.1716 81.1141 99.97 82.3507 100.073L82.3507 100.073ZM78.305 99.1621C77.6857 99.6077 77.1876 100.122 77.0199 100.535H78.8361C79.4813 100.535 79.3107 100.529 79.5043 100.477L78.305 99.1621Z" fill="#12355B"/>
<path d="M89.3812 156.75C89.0591 156.75 88.736 156.758 88.4142 156.758C86.2914 156.758 77.919 147.947 77.919 131.349C77.919 123.998 80.0385 115.194 81.2299 115.194C81.3142 115.193 81.3977 115.208 81.4759 115.239C81.5541 115.271 81.6254 115.317 81.6857 115.376C81.746 115.435 81.7941 115.505 81.8273 115.582C81.8605 115.66 81.8781 115.743 81.8791 115.827C81.8792 115.84 81.879 115.852 81.8785 115.865C81.8785 116.441 79.2668 122.103 79.2668 131.376C79.2668 149.173 88.583 155.889 89.4201 156.639L89.3812 156.75ZM71.9236 48.3713C72.0228 47.6631 72.0831 46.95 72.1043 46.2353C72.1043 45.6311 72.0692 45.0252 72.0088 44.4244C71.951 43.8497 71.3755 42.8951 70.7959 42.8951C70.2965 42.8951 68.3254 43.5289 68.3254 45.0417C68.3254 45.4724 68.4759 45.6332 68.4759 45.9026C68.4769 46.0459 68.421 46.1837 68.3204 46.2857C68.2199 46.3877 68.0829 46.4456 67.9397 46.4466C67.9303 46.4467 67.921 46.4465 67.9118 46.4461C67.1732 46.4461 67.0896 45.2944 67.0896 45.0495C67.0896 42.4218 69.966 41.5421 70.8426 41.5421C72.121 41.5421 73.4896 42.9873 73.4896 45.7395C73.4896 46.8448 73.2878 47.2332 73.2878 48.3976C73.2878 49.6451 73.5097 50.2275 73.5097 50.5578C73.5097 51.0822 73.1693 51.2688 72.9025 51.2688C72.0625 51.2693 72.1182 50.2025 71.9236 48.3713ZM155.501 37.2182C158.73 37.2211 158.853 39.8879 158.853 39.988C158.853 41.851 156.455 43.924 155.793 44.5093C154.775 45.4082 155.044 46.371 154.257 46.371C154.093 46.3703 153.935 46.3043 153.82 46.1877C153.704 46.071 153.639 45.9132 153.64 45.7489C153.64 45.7407 153.64 45.7325 153.641 45.7243C153.641 43.7114 157.505 41.9927 157.505 39.9741C157.505 39.9289 157.437 38.5031 155.456 38.5031C154.109 38.5031 154.097 39.1106 153.648 39.1106C153.491 39.1037 153.342 39.0388 153.231 38.9284C153.119 38.8181 153.052 38.6702 153.043 38.5135C153.043 38.2247 153.662 37.268 155.501 37.2182ZM104.801 19.7566C104.782 20.6706 104.573 21.5708 104.187 22.3994C102.615 25.6944 102.687 26.1625 102.084 26.1625C102.001 26.1632 101.919 26.1476 101.842 26.1165C101.765 26.0855 101.695 26.0396 101.636 25.9814C101.577 25.9233 101.53 25.8541 101.498 25.7778C101.465 25.7014 101.448 25.6195 101.447 25.5366C101.447 25.531 101.447 25.5255 101.447 25.5199C101.447 24.5186 103.43 21.7129 103.43 19.9457C103.43 18.1702 102.582 18.1375 102.361 18.1375H102.339C102.251 18.138 102.163 18.1449 102.076 18.1581C100.219 18.4311 100.911 19.3284 100.125 19.3284C99.9553 19.3235 99.7936 19.2534 99.6736 19.1328C99.5535 19.0121 99.4843 18.85 99.4803 18.6799C99.4803 18.138 100.559 16.8477 102.346 16.8477C104.549 16.8471 104.611 18.8497 104.801 19.7566ZM38.8403 59.2513C39.0821 63.7403 39.0929 63.9235 39.0929 63.987V64.0061C39.0929 64.3537 38.9381 64.8061 38.4253 64.8061C38.2708 64.8061 38.1211 64.7518 38.0024 64.6528C37.8837 64.5538 37.8035 64.4162 37.7758 64.2642C37.7319 64.0938 37.2617 54.5225 37.2617 54.3718V54.3018C37.2617 54.0773 37.2999 53.4853 37.9239 53.4853C38.7453 53.4851 38.5913 54.0621 38.8403 59.2513ZM153.522 49.9945C153.319 50.0026 153.121 49.9298 152.972 49.792C152.823 49.6543 152.734 49.4629 152.726 49.26L152.726 49.2433C152.723 49.0881 152.78 48.9377 152.885 48.8235C152.99 48.7092 153.135 48.6398 153.29 48.6296C153.403 48.6328 153.514 48.6668 153.61 48.7282C153.819 48.8533 154.187 49.0239 154.187 49.3942C154.187 49.474 154.17 49.5529 154.139 49.6264C154.108 49.6998 154.063 49.7665 154.006 49.8225C153.949 49.8785 153.882 49.9227 153.808 49.9527C153.734 49.9827 153.655 49.9978 153.575 49.9973C153.558 49.9971 153.54 49.9962 153.522 49.9945ZM103.194 27.9132C103.183 28.0871 103.104 28.2496 102.973 28.365C102.843 28.4804 102.672 28.5393 102.498 28.5289C102.422 28.5337 102.346 28.5236 102.274 28.4991C102.203 28.4745 102.137 28.4361 102.08 28.386C102.023 28.336 101.976 28.2752 101.943 28.2071C101.91 28.1391 101.89 28.0651 101.885 27.9895C101.884 27.9709 101.884 27.9522 101.884 27.9336C101.878 27.7752 101.936 27.6209 102.043 27.5047C102.151 27.3885 102.301 27.3199 102.459 27.3139C102.477 27.3133 102.494 27.3134 102.511 27.3142C102.65 27.314 103.194 27.3829 103.194 27.9132ZM73.7657 53.0706C73.7764 52.899 73.8549 52.7387 73.9838 52.6248C74.1127 52.511 74.2815 52.453 74.4532 52.4636C74.6085 52.4534 74.7615 52.5054 74.8785 52.608C74.9955 52.7106 75.067 52.8555 75.0772 53.0108C75.078 53.0218 75.0784 53.0329 75.0785 53.044C75.0785 53.5764 74.5311 53.6451 74.391 53.6451C74.3113 53.6525 74.2309 53.6431 74.1551 53.6176C74.0793 53.592 74.0097 53.5509 73.9507 53.4967C73.8918 53.4426 73.8449 53.3767 73.813 53.3033C73.7811 53.2299 73.765 53.1506 73.7657 53.0706L73.7657 53.0706ZM136.065 62.7485C135.495 63.1537 135.309 63.3235 134.987 63.3235C134.783 63.3228 134.587 63.2408 134.443 63.0955C134.298 62.9503 134.218 62.7537 134.219 62.5491C134.219 62.525 134.22 62.501 134.222 62.4771C134.222 53.6298 134.661 53.1565 135.041 53.1565C135.086 53.1565 135.131 53.1633 135.174 53.1633H135.184C135.262 53.1633 135.749 53.1844 135.749 53.8513C135.749 53.8755 135.602 60.8146 135.602 61.1098V61.378C135.703 61.378 135.79 61.3798 135.873 61.3798C136.002 61.3798 136.013 61.3754 136.087 61.3754C137.461 61.3754 137.588 63.1181 137.588 64.7416C137.588 65.1091 137.582 65.4706 137.582 65.8043C137.585 65.8937 137.571 65.9828 137.54 66.0667C137.509 66.1507 137.462 66.2276 137.401 66.2933C137.341 66.359 137.268 66.4121 137.186 66.4495C137.105 66.487 137.017 66.5081 136.928 66.5116L136.917 66.5119C135.865 66.5119 136.441 64.9576 136.065 62.7485ZM108.915 78.6208C108.831 78.6268 108.748 78.6163 108.668 78.5899C108.589 78.5636 108.515 78.5218 108.452 78.467C108.389 78.4123 108.337 78.3456 108.3 78.2709C108.262 78.1961 108.24 78.1147 108.234 78.0312C108.233 78.0165 108.232 78.0018 108.232 77.987C108.232 76.2224 111.053 74.2489 112.343 74.2489C112.428 74.2473 112.512 74.2623 112.591 74.2932C112.67 74.3241 112.742 74.3702 112.803 74.4289C112.864 74.4877 112.913 74.5579 112.947 74.6355C112.981 74.7131 112.999 74.7966 113.001 74.8814C113.001 74.8914 113.001 74.9014 113.001 74.9114C113.001 75.5764 112.129 75.5901 111.392 75.9893C109.115 77.2226 109.872 78.6208 108.915 78.6208ZM110.375 59.0652C106.929 58.8546 106.427 56.5238 106.427 56.3971C106.433 56.2236 106.507 56.0595 106.632 55.9392C106.757 55.8189 106.924 55.7518 107.098 55.7519C107.938 55.7519 107.915 57.6776 110.256 57.6776C110.65 57.6776 110.786 57.6236 110.979 57.6236C111.068 57.6159 111.157 57.6269 111.242 57.6559C111.326 57.6849 111.404 57.7313 111.469 57.7921C111.534 57.8529 111.586 57.9267 111.621 58.0088C111.657 58.091 111.674 58.1795 111.673 58.2688C111.672 58.9648 110.791 58.9909 110.375 59.0652ZM101.101 56.5067C101.438 56.5067 101.694 56.7942 101.694 57.2564V57.2822C101.609 57.4483 101.497 57.5992 101.363 57.7289C98.1827 60.1718 98.0803 60.202 97.8147 60.202H97.7941C97.6295 60.1905 97.4748 60.1193 97.3591 60.0017C97.2433 59.8842 97.1745 59.7285 97.1654 59.5638C97.1654 59.2448 97.5252 58.946 97.5758 58.9078C100.731 56.5199 100.746 56.5067 101.101 56.5067ZM107.9 66.164C107.9 66.282 107.906 66.3645 107.906 66.4332C107.91 66.5196 107.897 66.6059 107.867 66.6872C107.838 66.7685 107.793 66.8432 107.735 66.9071C107.676 66.971 107.606 67.0227 107.528 67.0595C107.45 67.0962 107.365 67.1171 107.278 67.1211C107.264 67.1218 107.25 67.122 107.236 67.1217C107.095 67.1314 106.954 67.0876 106.843 66.9989C106.732 66.9102 106.659 66.7831 106.637 66.6427C106.528 65.911 106.459 65.1739 106.43 64.4347C106.443 64.2771 106.516 64.1305 106.634 64.0257C106.752 63.9209 106.907 63.866 107.065 63.8727C107.822 63.8727 107.733 64.674 107.9 66.164ZM100.063 66.4337C100.063 66.2102 100.055 66.0208 100.055 65.8464C100.055 65.8391 100.052 65.8004 100.052 65.7431C100.052 65.5109 100.106 64.9736 100.655 64.9736C100.798 64.9676 100.938 65.0184 101.045 65.1151C101.151 65.2117 101.215 65.3463 101.222 65.4897C101.342 66.4283 101.368 67.2827 101.368 67.3594C101.373 67.5151 101.315 67.6662 101.208 67.7796C101.101 67.8929 100.954 67.9592 100.798 67.9638C100.784 67.9642 100.77 67.9641 100.756 67.9635C100.056 67.9648 100.128 67.1702 100.063 66.4337ZM70.6669 104.285C65.6204 104.392 65.3249 104.397 65.2658 104.397H65.2493C64.4875 104.397 64.313 104.046 64.313 103.725C64.313 103.676 64.3099 103.63 64.3099 103.586C64.3099 103.056 64.7427 102.863 76.0777 102.863C76.9649 102.863 76.9941 103.423 76.9941 103.514V103.526C76.9941 104.408 76.2947 104.188 70.6684 104.306L70.6669 104.285Z" fill="#12355B"/>
</g>
<defs>
<clipPath id="clip0_5226_56877">
<rect width="179.871" height="160" fill="white"/>
</clipPath>
</defs>
</svg>
