<svg width="8" height="9" viewBox="0 0 8 9" fill="none" xmlns="http://www.w3.org/2000/svg">
<path fill-rule="evenodd" clip-rule="evenodd" d="M6.68814 5.3824C6.51734 5.5556 6.43974 5.8052 6.47974 6.05L6.73774 7.6164C6.81814 8.104 6.44614 8.5 6.02414 8.5C5.91294 8.5 5.79814 8.4724 5.68694 8.4116L4.33694 7.672C4.23134 7.6144 4.11574 7.5856 3.99974 7.5856C3.88414 7.5856 3.76854 7.6144 3.66294 7.672L2.31294 8.4116C2.20174 8.4724 2.08694 8.5 1.97574 8.5C1.55374 8.5 1.18174 8.104 1.26214 7.6164L1.52014 6.05C1.56014 5.8052 1.48254 5.5556 1.31174 5.3824L0.21934 4.2732C-0.210259 3.8368 0.0269404 3.0764 0.62054 2.9864L2.13014 2.758C2.36614 2.7224 2.57014 2.568 2.67534 2.3452L3.35054 0.9204C3.48334 0.64 3.74174 0.5 3.99974 0.5C4.25814 0.5 4.51654 0.64 4.64934 0.9204L5.32454 2.3452C5.42974 2.568 5.63374 2.7224 5.86974 2.758L7.37934 2.9864C7.97294 3.0764 8.21014 3.8368 7.78054 4.2732L6.68814 5.3824Z" fill="#12355B"/>
</svg>
