<svg width="18" height="26" viewBox="0 0 18 26" fill="none" xmlns="http://www.w3.org/2000/svg">
<path d="M8.99979 0C6.83978 0 5.0447 1.66555 5.0447 3.76051C5.0447 4.8079 5.45296 6.11617 6.11707 7.24668C6.45902 7.82895 6.87514 8.38689 7.37381 8.78623C5.31721 9.16465 3.58923 10.2179 2.54866 11.5114C2.44723 11.6267 2.39662 11.7788 2.40898 11.9323C2.42114 12.0859 2.4951 12.2277 2.6134 12.3253C2.7319 12.4229 2.88472 12.4677 3.03657 12.4493C3.18861 12.431 3.32653 12.3512 3.41874 12.2281C4.47343 10.9173 6.58848 9.75952 8.99955 9.75952C11.4106 9.75952 13.5259 10.9173 14.5804 12.2281C14.6726 12.3512 14.8105 12.431 14.9625 12.4493C15.1144 12.4677 15.2672 12.4229 15.3857 12.3253C15.504 12.2277 15.578 12.0859 15.5901 11.9323C15.6025 11.7788 15.5519 11.6267 15.4504 11.5114C14.4099 10.2179 12.6819 9.16463 10.6253 8.78623C11.124 8.38687 11.5401 7.82889 11.882 7.24668C12.5461 6.11617 12.9544 4.8079 12.9544 3.76051C12.9544 1.66555 11.1598 0 8.99979 0ZM8.99979 1.13248C10.5905 1.13248 11.83 2.31931 11.83 3.76051C11.83 4.48102 11.4808 5.70991 10.9158 6.67154C10.3509 7.63302 9.60975 8.26423 8.99984 8.26423C8.38993 8.26423 7.64873 7.63302 7.08392 6.67154C6.51891 5.70986 6.16971 4.48102 6.16971 3.76051C6.16971 2.31931 7.40911 1.13248 8.99979 1.13248ZM0.483426 13.8587C0.204059 13.8986 -0.00272016 14.1408 2.70538e-05 14.425V22.8308C0.00395075 23.1269 0.233877 23.3698 0.527371 23.3882C1.53811 23.4447 2.67638 23.6123 3.8847 23.928C5.71529 24.4061 7.40073 25.1327 8.71005 25.9188C8.88838 26.0271 9.11164 26.0271 9.28998 25.9188C10.5993 25.1327 12.2847 24.4061 14.1153 23.928C15.3237 23.6124 16.4619 23.4447 17.4727 23.3882C17.7661 23.3698 17.9961 23.1269 18 22.8308V14.425C18.0004 14.2686 17.9362 14.1188 17.823 14.0116C17.7098 13.9042 17.5576 13.8489 17.4024 13.8587C16.3155 13.9194 15.1063 14.0993 13.8252 14.4339C12.0103 14.9079 10.3674 15.6128 9.00002 16.3981C7.63259 15.6128 5.98974 14.9079 4.17487 14.4339C2.89377 14.0993 1.6845 13.9194 0.597614 13.8587C0.55975 13.8548 0.521289 13.8548 0.483426 13.8587ZM1.12493 15.0533C1.9848 15.1338 2.90077 15.2652 3.88465 15.5221C5.71523 16.0003 7.40068 16.7271 8.71 17.513C8.88833 17.6212 9.11159 17.6212 9.28993 17.513C10.5992 16.7271 12.2847 16.0003 14.1153 15.5221C15.0992 15.2652 16.0151 15.1338 16.875 15.0533V22.3179C15.9243 22.4007 14.909 22.5478 13.8251 22.831C12.2515 23.242 10.8099 23.8415 9.56239 24.5033V19.4067C9.56337 19.2451 9.49569 19.0909 9.3766 18.9829C9.25732 18.8746 9.09802 18.8229 8.93832 18.8405C8.65209 18.8723 8.43569 19.1168 8.43746 19.4067V24.5033C7.18992 23.8414 5.74836 23.242 4.17476 22.831C3.09084 22.5478 2.07558 22.4007 1.12485 22.3179L1.12493 15.0533Z" fill="#5832DA"/>
</svg>
