<svg width="20" height="21" viewBox="0 0 20 21" fill="none" xmlns="http://www.w3.org/2000/svg">
<path d="M14.4605 14.2941L10.5884 10.422L14.4605 6.54986C14.6165 6.38842 14.6165 6.13243 14.4605 5.97094C14.3006 5.80543 14.0369 5.80085 13.8714 5.96071L9.99925 9.83284L6.12718 5.96077C5.96574 5.80482 5.70975 5.80482 5.54826 5.96077C5.38275 6.12063 5.37817 6.3844 5.53804 6.54991L9.4101 10.422L5.53804 14.294C5.45991 14.3722 5.41602 14.4781 5.41602 14.5886C5.41596 14.8187 5.60253 15.0053 5.83263 15.0053C5.94316 15.0054 6.04915 14.9615 6.12718 14.8832L9.99925 11.0111L13.8714 14.8832C13.9494 14.9615 14.0554 15.0055 14.166 15.0053C14.2764 15.0053 14.3823 14.9614 14.4604 14.8833C14.6232 14.7206 14.6232 14.4568 14.4605 14.2941Z" fill="#5832DA"/>
</svg>
