<svg width="13" height="13" viewBox="0 0 13 13" fill="none" xmlns="http://www.w3.org/2000/svg">
<g clip-path="url(#clip0_5226_52257)">
<path d="M11.1595 1.82705C10.9891 1.65745 10.7869 1.52328 10.5644 1.43229C10.342 1.3413 10.1037 1.29529 9.86331 1.29692C9.62295 1.29854 9.3853 1.34778 9.16408 1.44177C8.94287 1.53577 8.74246 1.67266 8.57445 1.84455L1.32445 9.09455L0.439453 12.5471L3.89195 11.6616L11.142 4.41155C11.3139 4.24362 11.4508 4.04327 11.5448 3.82209C11.6389 3.60091 11.6881 3.36328 11.6898 3.12295C11.6914 2.88262 11.6454 2.64435 11.5543 2.42191C11.4633 2.19948 11.3291 1.9973 11.1595 1.82705V1.82705Z" stroke="black" stroke-width="1.01613" stroke-linecap="round" stroke-linejoin="round"/>
<path d="M8.36719 2.05078L10.9342 4.61778" stroke="black" stroke-width="1.01613" stroke-linecap="round" stroke-linejoin="round"/>
<path d="M1.32422 9.09375L3.89372 11.6588" stroke="black" stroke-width="1.01613" stroke-linecap="round" stroke-linejoin="round"/>
</g>
<defs>
<clipPath id="clip0_5226_52257">
<rect width="12" height="12" fill="white" transform="translate(0.0644531 0.921875)"/>
</clipPath>
</defs>
</svg>
