<svg width="48" height="48" viewBox="0 0 48 48" fill="none" xmlns="http://www.w3.org/2000/svg">
<path fill-rule="evenodd" clip-rule="evenodd" d="M35.25 7.99964C35.25 5.99092 33.5715 4.36328 31.5 4.36328C27.5085 4.36328 20.4915 4.36328 16.5 4.36328C14.4285 4.36328 12.75 5.99092 12.75 7.99964C12.75 15.044 12.75 32.9553 12.75 39.9996C12.75 42.0084 14.4285 43.636 16.5 43.636C20.4915 43.636 27.5085 43.636 31.5 43.636C33.5715 43.636 35.25 42.0084 35.25 39.9996V7.99964ZM18.75 5.81783H16.5C15.258 5.81783 14.25 6.79528 14.25 7.99964C14.25 15.044 14.25 32.9553 14.25 39.9996C14.25 41.204 15.258 42.1815 16.5 42.1815C20.4915 42.1815 27.5085 42.1815 31.5 42.1815C32.742 42.1815 33.75 41.204 33.75 39.9996V7.99964C33.75 6.79528 32.742 5.81783 31.5 5.81783H29.25V6.5451C29.25 7.12401 29.013 7.67819 28.5915 8.08837C28.1685 8.4971 27.597 8.72692 27 8.72692C25.335 8.72692 22.665 8.72692 21 8.72692C20.403 8.72692 19.8315 8.4971 19.4085 8.08837C18.987 7.67819 18.75 7.12401 18.75 6.5451V5.81783ZM21 40.7269H27C27.414 40.7269 27.75 40.4011 27.75 39.9996C27.75 39.5982 27.414 39.2724 27 39.2724H21C20.586 39.2724 20.25 39.5982 20.25 39.9996C20.25 40.4011 20.586 40.7269 21 40.7269ZM20.25 5.81783V6.5451C20.25 6.73855 20.3295 6.92328 20.469 7.06001C20.61 7.19528 20.8005 7.27237 21 7.27237C22.665 7.27237 25.335 7.27237 27 7.27237C27.1995 7.27237 27.39 7.19528 27.531 7.06001C27.6705 6.92328 27.75 6.73855 27.75 6.5451V5.81783H20.25Z" fill="black"/>
</svg>
