<svg width="96" height="129" viewBox="0 0 96 129" fill="none" xmlns="http://www.w3.org/2000/svg">
<path d="M38.8542 76.1865L51.6748 83.5885L25.6404 128.681L18.168 112.016L38.8542 76.1865Z" fill="#AA75CB"/>
<path d="M38.8542 76.1865L26.0337 68.7846L-0.000707408 113.878L18.168 112.016L38.8542 76.1865Z" fill="#73488D"/>
<path d="M57.1443 76.1865L44.3237 83.5885L70.3582 128.681L77.8306 112.016L57.1443 76.1865Z" fill="#73488D"/>
<path d="M57.1443 76.1865L69.9648 68.7846L95.9992 113.878L77.8306 112.016L57.1443 76.1865Z" fill="#AA75CB"/>
<circle cx="47.9794" cy="45.1386" r="44.476" fill="#DC9E42" stroke="#774700" stroke-width="0.674692"/>
<circle cx="47.9781" cy="45.1388" r="34.4542" fill="#734C12"/>
<mask id="mask0_4582_15158" style="mask-type:alpha" maskUnits="userSpaceOnUse" x="15" y="14" width="70" height="70">
<circle cx="49.8183" cy="48.8176" r="34.5344" fill="#C28B37"/>
</mask>
<g mask="url(#mask0_4582_15158)">
<circle cx="47.979" cy="45.1398" r="34.5344" fill="#A36D1D"/>
</g>
<path d="M48.1651 21.1133L55.6146 36.0124L70.5137 37.8748L60.283 49.3471L63.0642 65.8106L48.1651 58.361L33.266 65.8106L36.072 49.3471L25.8164 37.8748L40.7155 36.0124L48.1651 21.1133Z" fill="url(#paint0_linear_4582_15158)"/>
<defs>
<linearGradient id="paint0_linear_4582_15158" x1="48.1651" y1="21.1133" x2="48.1651" y2="65.8106" gradientUnits="userSpaceOnUse">
<stop stop-color="#FCFF80"/>
<stop offset="0.401042" stop-color="#FDE870"/>
<stop offset="1" stop-color="#FFC759"/>
</linearGradient>
</defs>
</svg>
