<svg width="105" height="145" viewBox="0 0 105 145" fill="none" xmlns="http://www.w3.org/2000/svg">
<path d="M45.8684 91.5352L58.9257 99.0738L32.4105 144.999L24.8001 128.027L45.8684 91.5352Z" fill="#CE4444"/>
<path d="M45.8684 91.5352L32.8111 83.9965L6.29591 129.922L24.8001 128.027L45.8684 91.5352Z" fill="#983535"/>
<path d="M64.4946 91.5352L51.4373 99.0738L77.9525 144.999L85.5629 128.027L64.4946 91.5352Z" fill="#983535"/>
<path d="M64.4946 91.5352L77.5519 83.9965L104.067 129.922L85.5629 128.027L64.4946 91.5352Z" fill="#CE4444"/>
<circle cx="54.7797" cy="59.9127" r="45.3937" fill="url(#paint0_linear_4582_15182)" stroke="#765C00" stroke-width="0.879909"/>
<circle cx="54.7804" cy="59.9137" r="35.0905" fill="#A88300"/>
<mask id="mask0_4582_15182" style="mask-type:alpha" maskUnits="userSpaceOnUse" x="21" y="28" width="71" height="71">
<circle cx="56.6528" cy="63.6594" r="35.1721" fill="#C28B37"/>
</mask>
<g mask="url(#mask0_4582_15182)">
<circle cx="54.7795" cy="59.9133" r="35.1721" fill="#C09525"/>
</g>
<path d="M54.9689 35.4443L62.556 50.6186L77.7303 52.5154L67.3106 64.1995L70.1431 80.9671L54.9689 73.38L39.7946 80.9671L42.6525 64.1995L32.2075 52.5154L47.3818 50.6186L54.9689 35.4443Z" fill="url(#paint1_linear_4582_15182)"/>
<path d="M11.3135 32.6623L16.2605 21.7749L11.3135 10.8874L22.2009 15.8344L33.0884 10.8874L28.1414 21.7749L33.0884 32.6623L22.2009 27.7154L11.3135 32.6623Z" fill="white"/>
<defs>
<linearGradient id="paint0_linear_4582_15182" x1="54.7797" y1="14.959" x2="54.7797" y2="104.866" gradientUnits="userSpaceOnUse">
<stop stop-color="#FFC600"/>
<stop offset="1" stop-color="#FFDE69"/>
</linearGradient>
<linearGradient id="paint1_linear_4582_15182" x1="54.9689" y1="35.4443" x2="54.9689" y2="80.9671" gradientUnits="userSpaceOnUse">
<stop stop-color="#FFFCDD"/>
<stop offset="1" stop-color="#FFE896"/>
</linearGradient>
</defs>
</svg>
