<svg width="205" height="48" viewBox="0 0 205 48" fill="none" xmlns="http://www.w3.org/2000/svg">
<path d="M75.1476 40H1.24878C0.67572 40 0.346266 39.4142 0.729816 38.9858C1.95908 37.6126 4.21308 36.0349 5.80564 36.0349C8.32318 36.0349 8.68283 37.8372 10.8407 37.8372C14.4372 37.8372 18.3933 25.5814 24.5074 25.5814C30.6214 25.5814 30.6214 32.7907 37.4547 32.7907C44.288 32.7907 47.1652 9 56.8757 9C65.3938 9 73.9119 26.794 76.6196 38.1683C76.8453 39.1161 76.1162 40 75.1476 40Z" fill="#553C9A"/>
<path d="M86.5703 33.8543H89.3236V27.6581C89.3236 24.9631 90.7253 23.5274 92.5525 23.5274C94.1544 23.5274 95.1556 24.7364 95.1556 26.7262V33.8543H97.9089V26.2728C97.9089 23.074 96.0317 21.0086 93.1282 21.0086C91.5012 21.0086 90.0745 21.7139 89.3236 22.9733V14.9636H86.5703V33.8543Z" fill="#131520"/>
<path d="M104.385 16.6512C104.385 15.6437 103.585 14.8125 102.558 14.8125C101.557 14.8125 100.706 15.6437 100.706 16.6512C100.706 17.6839 101.557 18.5151 102.558 18.5151C103.585 18.5151 104.385 17.6839 104.385 16.6512ZM101.182 33.8543H103.935V21.2605H101.182V33.8543Z" fill="#131520"/>
<path d="M107.384 33.8543H110.138V27.6581C110.138 25.0134 111.364 23.5274 113.141 23.5274C114.643 23.5274 115.369 24.8119 115.369 26.7766V33.8543H118.122V27.6581C118.122 25.0134 119.324 23.5274 121.101 23.5274C122.603 23.5274 123.329 24.8119 123.329 26.7766V33.8543H126.082V26.3232C126.082 23.0992 124.405 21.0086 121.576 21.0086C119.924 21.0086 118.323 21.8902 117.572 23.5022C116.896 21.9406 115.544 21.0086 113.692 21.0086C112.09 21.0086 110.839 21.7894 110.138 22.9733V21.2605H107.384V33.8543Z" fill="#131520"/>
<path d="M128.452 27.5574C128.452 31.1592 131.055 34.1061 134.484 34.1061C136.286 34.1061 137.788 33.1742 138.489 32.1667V33.8543H141.242V21.2605H138.489V22.9481C137.788 21.9406 136.286 21.0086 134.484 21.0086C131.055 21.0086 128.452 23.9556 128.452 27.5574ZM138.714 27.5574C138.714 29.8243 137.213 31.5874 134.985 31.5874C132.757 31.5874 131.255 29.8243 131.255 27.5574C131.255 25.2905 132.757 23.5274 134.985 23.5274C137.213 23.5274 138.714 25.2905 138.714 27.5574Z" fill="#131520"/>
<path d="M144.722 33.8543H147.476V14.9636H144.722V33.8543Z" fill="#131520"/>
<path d="M150.024 27.5574C150.024 31.1592 152.627 34.1061 156.056 34.1061C157.858 34.1061 159.36 33.1742 160.061 32.1667V33.8543H162.814V21.2605H160.061V22.9481C159.36 21.9406 157.858 21.0086 156.056 21.0086C152.627 21.0086 150.024 23.9556 150.024 27.5574ZM160.286 27.5574C160.286 29.8243 158.784 31.5874 156.557 31.5874C154.329 31.5874 152.827 29.8243 152.827 27.5574C152.827 25.2905 154.329 23.5274 156.557 23.5274C158.784 23.5274 160.286 25.2905 160.286 27.5574Z" fill="#131520"/>
<path d="M170.299 39.1184L178.333 21.2605H175.28L171.45 30.1769L167.596 21.2605H164.567L169.948 33.1742L167.27 39.1184H170.299Z" fill="#131520"/>
<path d="M178.807 27.5574C178.807 31.1592 181.41 34.1061 184.839 34.1061C186.641 34.1061 188.143 33.1742 188.844 32.1667V33.8543H191.597V21.2605H188.844V22.9481C188.143 21.9406 186.641 21.0086 184.839 21.0086C181.41 21.0086 178.807 23.9556 178.807 27.5574ZM189.069 27.5574C189.069 29.8243 187.567 31.5874 185.339 31.5874C183.112 31.5874 181.61 29.8243 181.61 27.5574C181.61 25.2905 183.112 23.5274 185.339 23.5274C187.567 23.5274 189.069 25.2905 189.069 27.5574Z" fill="#131520"/>
<path d="M204.388 30.3784C204.388 28.4641 203.312 27.1544 201.059 26.5751L198.956 26.0209C197.905 25.7439 197.279 25.3157 197.279 24.5097C197.279 23.7037 198.055 23.2251 199.106 23.2251C200.083 23.2251 200.909 23.7289 201.159 24.7868H203.912C203.712 22.5199 201.835 21.0086 199.132 21.0086C196.328 21.0086 194.476 22.4191 194.476 24.5349C194.476 26.3736 195.527 27.7841 197.68 28.3382L199.732 28.8923C201.034 29.2198 201.584 29.6983 201.584 30.5547C201.584 31.4111 200.758 31.8896 199.557 31.8896C198.331 31.8896 197.204 31.3859 196.979 30.0258H194.126C194.276 32.5445 196.553 34.1061 199.482 34.1061C202.285 34.1061 204.388 32.8216 204.388 30.3784Z" fill="#131520"/>
</svg>
