<svg width="24" height="24" viewBox="0 0 24 24" fill="none" xmlns="http://www.w3.org/2000/svg">
<path fill-rule="evenodd" clip-rule="evenodd" d="M15.8141 2.26121C10.6659 -2.23849 2.68318 0.307473 0.91109 6.98105C0.166954 9.78185 0.884854 11.0823 0.884854 13.1844C0.884854 15.3452 0 18.475 0 18.475C0 18.8578 0.33987 19.2311 0.758446 19.1222C2.25507 18.731 4.63535 17.9569 7.48191 18.7298C17.0543 21.3248 23.197 8.71345 15.8141 2.26121ZM23.3365 24.0001C23.2745 24.0001 23.2101 23.9917 23.1445 23.975C15.5767 22.0751 16.0847 24.2095 11.8799 23.0849C10.6075 22.7451 9.44953 22.1325 8.4502 21.3381C16.0871 22.2737 22.4528 15.6204 21.3259 7.78516C22.4791 8.98516 23.3258 10.4711 23.6835 12.1353C24.7019 16.8587 22.1165 16.0595 23.9805 23.238C24.0902 23.6579 23.7181 24.0001 23.3365 24.0001Z" fill="#5832DA"/>
</svg>
