<svg width="48" height="48" viewBox="0 0 48 48" fill="none" xmlns="http://www.w3.org/2000/svg">
<path fill-rule="evenodd" clip-rule="evenodd" d="M25.2322 4H22.7621C21.371 4 20.0372 4.5431 19.0559 5.50915C18.1861 6.3654 17.6541 7.49433 17.5515 8.69561L17.5345 9.08362C17.5155 10.347 16.4948 11.3327 15.242 11.3326C14.9579 11.3296 14.6628 11.2648 14.3912 11.1426L14.1247 11.0034C11.6631 9.62034 8.46257 10.4675 7.01836 12.9233L5.71979 15.0139C4.33899 17.361 5.02001 20.3095 7.24897 21.8282L7.55897 22.023C8.32298 22.4568 8.75974 23.1979 8.75974 24C8.75974 24.7376 8.38982 25.4274 7.77291 25.8457L7.5623 25.9749C5.25303 27.2825 4.34315 30.1683 5.50393 32.5689L5.67358 32.8884L6.94825 35.0448C7.61079 36.2166 8.74613 37.0994 10.0889 37.4733C11.2791 37.8047 12.5492 37.713 13.6752 37.2168L14.0313 37.0426C14.6306 36.7032 15.2497 36.6218 15.8308 36.7742C16.4118 36.9265 16.9067 37.3 17.2054 37.8115C17.3701 38.0837 17.4667 38.3644 17.5013 38.6553L17.5182 38.9507C17.5153 41.6985 19.8644 44 22.7621 44H25.2328C27.969 44 30.2399 41.9406 30.462 39.2829L30.4782 38.9396C30.4767 38.2757 30.7164 37.7048 31.1455 37.2844C31.5745 36.8641 32.1572 36.6292 32.764 36.6321C33.0429 36.6397 33.3493 36.7081 33.6332 36.8325L33.9054 36.9699C36.2021 38.2688 39.2116 37.6015 40.7617 35.4177L40.9606 35.114L42.2798 32.9609C42.9901 31.7666 43.1824 30.3635 42.8238 29.046C42.5059 27.8782 41.7773 26.8594 40.7687 26.1682L40.4348 25.9586C39.8545 25.6299 39.4719 25.1416 39.316 24.5687C39.1601 23.9959 39.2437 23.3858 39.5483 22.8736C39.717 22.5852 39.9413 22.3451 40.2103 22.1614L40.7248 21.8446C42.8086 20.4585 43.589 17.7304 42.4922 15.4368L42.3784 15.2135C42.3538 15.1552 42.3253 15.0984 42.293 15.0435L41.0667 12.9586C39.7022 10.6384 36.7519 9.73795 34.2919 10.871L33.9643 11.0368C33.3764 11.3738 32.7557 11.4589 32.1714 11.3103C31.587 11.1616 31.087 10.7913 30.7816 10.2811C30.6249 10.0223 30.5282 9.74159 30.4937 9.4507L30.4767 9.15532C30.5197 7.89936 29.985 6.55361 28.9965 5.55742C28.0081 4.56123 26.6502 3.99943 25.2322 4ZM22.7621 6.89549H25.2328C25.8527 6.89524 26.4457 7.1406 26.8774 7.57567C27.3091 8.01075 27.5426 8.59848 27.5248 9.20499L27.5511 9.7091C27.6404 10.4797 27.8713 11.1501 28.2361 11.7523C28.9346 12.9193 30.0846 13.7709 31.4286 14.1128C32.7726 14.4547 34.2002 14.2588 35.3966 13.5683L35.6029 13.4653L35.8249 13.3782C36.8016 13.0571 37.9528 13.4635 38.506 14.4042L39.6756 16.3945L39.7009 16.4506L39.8423 16.7177C40.3156 17.7101 39.9201 18.9654 38.896 19.5523L38.5745 19.7507C37.8927 20.2147 37.3697 20.7743 36.9892 21.4252C36.2941 22.5942 36.1018 23.9973 36.4604 25.3148C36.7864 26.5125 37.5432 27.5495 38.5844 28.2391L39.129 28.5763C39.5132 28.8413 39.83 29.2843 39.9682 29.7921C40.1241 30.3649 40.0405 30.975 39.7359 31.4872L38.4471 33.5914L38.3021 33.8134C37.7058 34.6516 36.5293 34.9629 35.5374 34.5363L34.9055 34.2201C34.2007 33.9093 33.5112 33.7555 32.8106 33.7372C31.3827 33.7301 30.0424 34.2703 29.0557 35.237C28.0689 36.2038 27.5175 37.5169 27.5242 38.8841L27.5129 39.1023C27.4197 40.2047 26.4274 41.1045 25.2328 41.1045H22.7621C21.5809 41.1045 20.6085 40.2289 20.484 39.1041L20.4437 38.3969C20.3544 37.6263 20.1235 36.956 19.7587 36.3537C19.0805 35.1919 17.9372 34.3291 16.5947 33.9771C15.2522 33.6251 13.8219 33.8131 12.6215 34.4993L12.4041 34.6036C11.9713 34.7928 11.4166 34.8328 10.8968 34.6881C10.3104 34.5248 9.81451 34.1393 9.51899 33.6168L8.2605 31.4898L8.14792 31.2767C7.67119 30.288 8.06702 29.0326 9.09272 28.4512L9.40433 28.2593C10.8682 27.2681 11.715 25.6891 11.715 24C11.715 22.2859 10.8439 20.6933 9.40785 19.742L8.88642 19.4185C7.96508 18.7893 7.66748 17.5009 8.26251 16.4891L9.56109 14.3985C10.2098 13.2963 11.6075 12.9263 12.7037 13.5417L13.0885 13.7405C13.8071 14.0659 14.5117 14.2207 15.2265 14.228C17.9993 14.2283 20.2667 12.1418 20.4736 9.48302L20.5005 8.87324C20.5411 8.41483 20.7725 7.92394 21.1506 7.55166C21.5773 7.13163 22.1572 6.89549 22.7621 6.89549ZM24.0065 17.4636C20.3219 17.4636 17.335 20.3901 17.335 24C17.335 27.6099 20.3219 30.5364 24.0065 30.5364C27.6911 30.5364 30.678 27.6099 30.678 24C30.678 20.3901 27.6911 17.4636 24.0065 17.4636ZM24.0065 20.3591C26.0588 20.3591 27.7226 21.9892 27.7226 24C27.7226 26.0108 26.0588 27.6409 24.0065 27.6409C21.9541 27.6409 20.2903 26.0108 20.2903 24C20.2903 21.9892 21.9541 20.3591 24.0065 20.3591Z" fill="#5832DA"/>
</svg>
