<svg width="24" height="24" viewBox="0 0 24 24" fill="none" xmlns="http://www.w3.org/2000/svg">
<path fill-rule="evenodd" clip-rule="evenodd" d="M12 0C5.37214 0 0 5.37214 0 12C0 18.6279 5.37214 24 12 24C18.6279 24 24 18.6279 24 12C24 5.37214 18.6279 0 12 0ZM12.0008 1.80078C17.6345 1.80078 22.2008 6.36704 22.2008 12.0008C22.2008 17.6345 17.6345 22.2008 12.0008 22.2008C6.36704 22.2008 1.80078 17.6345 1.80078 12.0008C1.80078 6.36704 6.36704 1.80078 12.0008 1.80078ZM12.4851 6.89311C12.4255 6.45382 12.049 6.11523 11.5934 6.11523C11.0963 6.11523 10.6934 6.51818 10.6934 7.01523V12.8316L10.7034 12.9657C10.7431 13.2298 10.899 13.4654 11.1323 13.6046L15.6563 16.3034L15.7654 16.3589C16.1732 16.5327 16.6568 16.3828 16.8903 15.9915L16.9458 15.8824C17.1197 15.4746 16.9697 14.9909 16.5784 14.7575L12.4929 12.3194L12.4934 7.01523L12.4851 6.89311Z" fill="#200E32"/>
</svg>
