<svg width="22" height="22" viewBox="0 0 22 22" fill="none" xmlns="http://www.w3.org/2000/svg">
<path fill-rule="evenodd" clip-rule="evenodd" d="M11.031 2.42847H10.9698C8.08198 2.42847 5.43418 4.52381 5.1773 7.29786C5.16017 7.49631 5.14849 7.69909 5.14095 7.91753L5.13039 8.42825L5.12831 8.88614L5.1412 8.83394C5.02202 9.41508 4.74735 9.95412 4.3456 10.3946L4.28803 10.4686C3.94403 10.9912 3.74638 11.5961 3.71579 12.2206L3.71506 12.4248C3.6975 13.2463 3.97899 14.0591 4.50854 14.7047C5.22666 15.463 6.15625 15.9153 7.15397 16.0112C9.70571 16.2884 12.2874 16.2884 14.8463 16.0105C15.8372 15.9193 16.7695 15.4657 17.4576 14.7355C17.9771 14.114 18.2606 13.3682 18.2849 12.5959L18.2857 12.2502C18.2573 11.5982 18.0584 10.9928 17.7103 10.4725L17.6574 10.4046L17.5282 10.2526C17.2379 9.89011 17.026 9.47249 16.9054 9.02579L16.8672 8.86541L16.8593 8.6972C16.8569 8.62155 16.8557 8.53766 16.8553 8.43289L16.8552 7.85595C16.8532 7.63525 16.8467 7.47831 16.8315 7.30164C16.5658 4.52234 13.9172 2.42847 11.031 2.42847ZM10.9698 3.62448H11.031C13.3431 3.62448 15.4523 5.29197 15.6549 7.41126C15.6669 7.5504 15.6722 7.68313 15.6738 7.88032L15.6762 8.65573C15.6787 8.77974 15.6836 8.88286 15.6919 8.9989L15.703 9.07833L15.7586 9.31472C15.9234 9.94004 16.2194 10.5234 16.6269 11.0263L16.7451 11.1649L16.732 11.1432C16.958 11.481 17.0868 11.8729 17.1048 12.2772L17.1042 12.4172C17.1178 12.9796 16.9314 13.5139 16.5786 13.937C16.1125 14.4302 15.4461 14.7544 14.7297 14.8204C12.2452 15.0901 9.74796 15.0901 7.27287 14.8213C6.54871 14.7516 5.88184 14.4272 5.38888 13.9082C5.06931 13.5162 4.88487 12.9835 4.89645 12.4377L4.89659 12.2502L4.91156 12.087C4.94763 11.8138 5.0389 11.5369 5.18038 11.282L5.25213 11.1632C5.77811 10.5716 6.13908 9.85229 6.29806 9.07704L6.3104 8.95549L6.31599 8.16754L6.32975 7.76778C6.33599 7.64167 6.34399 7.52185 6.35401 7.4057C6.54975 5.29207 8.65701 3.62448 10.9698 3.62448ZM5.25213 11.1632C5.23941 11.1775 5.22659 11.1918 5.21368 11.2059L5.25591 11.157L5.25213 11.1632ZM13.2354 17.5918C12.9812 17.3848 12.6093 17.4256 12.4048 17.6829C12.3162 17.7945 12.2135 17.8945 12.0993 17.9807C11.7121 18.2844 11.2288 18.4197 10.7483 18.3624C10.2686 18.3053 9.8325 18.0611 9.53661 17.6852C9.3333 17.4268 8.96162 17.3843 8.70644 17.5901C8.45125 17.7959 8.4092 18.1721 8.6125 18.4304C9.10315 19.0538 9.8221 19.4564 10.6103 19.5503C11.3977 19.6441 12.1907 19.4222 12.8143 18.9328C12.9995 18.7932 13.1742 18.6229 13.3254 18.4326C13.5299 18.1753 13.4896 17.7989 13.2354 17.5918Z" fill="#12355B"/>
</svg>
