<svg width="24" height="24" viewBox="0 0 24 24" fill="none" xmlns="http://www.w3.org/2000/svg">
<path fill-rule="evenodd" clip-rule="evenodd" d="M16.217 6C17.5145 6 18.5698 7.00447 18.5997 8.25459L18.6004 8.30905V13.4602C18.6004 14.7173 17.5636 15.7398 16.2733 15.7687L16.217 15.7694H12.0087L9.6426 17.8192C9.50817 17.9356 9.33414 18 9.1538 18C8.7611 18 8.44044 17.7009 8.42135 17.325L8.42043 17.2895V15.7694H7.78374C6.4863 15.7694 5.43099 14.7649 5.40108 13.5148L5.40039 13.4604V8.30917C5.40039 7.05213 6.43717 6.02958 7.72745 6.00067L7.78374 6L16.217 6ZM16.1254 6.94141H7.85724L7.81132 6.94208C7.01762 6.96518 6.37852 7.58437 6.35468 8.35346L6.35399 8.39799V13.3715L6.35468 13.416C6.37851 14.1851 7.01762 14.8043 7.81132 14.8274L7.85724 14.828H8.95224C9.08967 14.828 9.20948 14.9008 9.27231 15.0086L9.28486 15.0323L9.29487 15.0553C9.30649 15.0846 9.3142 15.1158 9.31731 15.1482L9.31892 15.1811V16.9596L10.5779 15.7696H10.5757L11.3578 15.0304C11.4844 14.9108 11.6513 14.8397 11.8274 14.8295L11.8716 14.8283H16.1256L16.1715 14.8276C16.9652 14.8045 17.6043 14.1853 17.6282 13.4162L17.6288 13.3717V8.39823L17.6282 8.3537C17.6043 7.58461 16.9652 6.9654 16.1715 6.94231L16.1254 6.94141ZM9.2506 12.4237C9.44292 12.4237 9.59886 12.5738 9.59886 12.759C9.59886 12.9442 9.44291 13.0943 9.2506 13.0943H8.26055C8.06823 13.0943 7.91228 12.9441 7.91228 12.759C7.91228 12.5738 8.06824 12.4237 8.26055 12.4237H9.2506ZM13.504 12.4237C13.6963 12.4237 13.8523 12.5738 13.8523 12.759C13.8523 12.9442 13.6963 13.0943 13.504 13.0943H10.5158C10.3235 13.0943 10.1675 12.9441 10.1675 12.759C10.1675 12.5738 10.3235 12.4237 10.5158 12.4237H13.504ZM15.8323 12.4237C16.0247 12.4237 16.1806 12.5738 16.1806 12.759C16.1806 12.9442 16.0247 13.0943 15.8323 13.0943H14.7507C14.5584 13.0943 14.4024 12.9441 14.4024 12.759C14.4024 12.5738 14.5584 12.4237 14.7507 12.4237H15.8323ZM10.705 10.9237C10.8973 10.9237 11.0533 11.0738 11.0533 11.259C11.0533 11.4441 10.8973 11.5942 10.705 11.5942H8.26055C8.06823 11.5942 7.91228 11.4441 7.91228 11.259C7.91228 11.0738 8.06824 10.9237 8.26055 10.9237H10.705ZM15.8382 10.9237C16.0306 10.9237 16.1865 11.0738 16.1865 11.259C16.1865 11.4441 16.0305 11.5942 15.8382 11.5942H11.9637C11.7714 11.5942 11.6155 11.4441 11.6155 11.259C11.6155 11.0738 11.7714 10.9237 11.9637 10.9237H15.8382Z" fill="white"/>
</svg>
