<svg width="24" height="24" viewBox="0 0 24 24" fill="none" xmlns="http://www.w3.org/2000/svg">
<path d="M11.9964 19.714C15.7547 19.714 18.8569 16.7114 18.8569 13.0737C18.8569 9.89145 16.4772 7.19682 13.3685 6.57449V5.63137C13.3685 5.14377 12.9907 5.00262 12.5797 5.29133L10.3393 6.82471C10.0012 7.06209 10.0012 7.42137 10.3393 7.65234L12.5731 9.19213C12.984 9.48084 13.3685 9.35252 13.3685 8.85209V7.92822C15.7415 8.51206 17.4781 10.5844 17.4781 13.0737C17.4781 16.0185 15.0389 18.3859 11.9964 18.3859C8.95394 18.3859 6.50804 16.0185 6.51467 13.0737C6.5213 11.3607 7.34986 9.86579 8.64903 8.897C8.96057 8.63396 9.06 8.25542 8.82137 7.94105C8.60263 7.63951 8.17178 7.58818 7.81385 7.87048C6.20313 9.03815 5.14258 11.0014 5.14258 13.0737C5.14258 16.7114 8.2447 19.714 11.9964 19.714ZM10.1007 15.7619C10.3989 15.7619 10.5845 15.5694 10.5845 15.2615V11.2837C10.5845 10.8987 10.3724 10.6998 10.0211 10.6998C9.80901 10.6998 9.64993 10.764 9.39142 10.9501L8.53635 11.5403C8.35738 11.6815 8.27784 11.8098 8.27784 11.983C8.27784 12.214 8.47007 12.4064 8.70206 12.4064C8.85452 12.4064 8.94069 12.3679 9.06663 12.2525L9.62342 11.8162V15.2615C9.62342 15.563 9.80901 15.7619 10.1007 15.7619ZM13.4282 15.826C14.5417 15.826 15.2709 15.1331 15.2709 14.0681C15.2709 13.1122 14.608 12.4578 13.6999 12.4578C13.2956 12.4578 12.8714 12.6438 12.6858 12.9454L12.7918 11.598H14.6942C14.9328 11.598 15.1118 11.4184 15.1118 11.1746C15.1118 10.9308 14.9328 10.7704 14.6942 10.7704H12.5863C12.2218 10.7704 12.0163 10.9821 11.9898 11.3542L11.8572 13.1827C11.8241 13.5292 12.0229 13.7024 12.3345 13.7024C12.5797 13.7024 12.6725 13.6575 12.8515 13.5228C13.0835 13.3239 13.2757 13.2341 13.5342 13.2341C14.0247 13.2341 14.3429 13.5805 14.3429 14.0874C14.3429 14.6135 13.9651 14.9984 13.4613 14.9984C13.0835 14.9984 12.7786 14.7931 12.6062 14.4851C12.5068 14.3312 12.3875 14.2413 12.2019 14.2413C11.9566 14.2413 11.7843 14.4082 11.7843 14.652C11.7843 14.7482 11.8042 14.838 11.844 14.9343C12.0229 15.3769 12.6129 15.826 13.4282 15.826Z" fill="white"/>
</svg>
