<svg width="24" height="24" viewBox="0 0 24 24" fill="none" xmlns="http://www.w3.org/2000/svg">
<path d="M17.0913 6.9087C16.9265 6.74397 16.6594 6.74397 16.4947 6.9087C16.3299 7.07343 16.3299 7.34056 16.4947 7.50532C18.9729 9.98361 18.9729 14.0161 16.4947 16.4945C16.3299 16.6592 16.3299 16.9263 16.4947 17.0911C16.577 17.1735 16.685 17.2147 16.7929 17.2147C16.9009 17.2147 17.0089 17.1735 17.0912 17.0911C18.4511 15.7312 19.2001 13.9231 19.2001 11.9999C19.2001 10.0766 18.4511 8.26857 17.0913 6.9087Z" fill="white"/>
<path d="M15.8139 8.188C15.6492 8.02327 15.3821 8.02327 15.2173 8.188C15.0526 8.35276 15.0526 8.61986 15.2173 8.78462C16.0765 9.64378 16.5497 10.7861 16.5497 12.0011C16.5497 13.2161 16.0765 14.3584 15.2173 15.2175C15.0526 15.3823 15.0526 15.6494 15.2173 15.8142C15.2997 15.8966 15.4076 15.9377 15.5156 15.9377C15.6235 15.9377 15.7315 15.8965 15.8139 15.8142C16.8324 14.7957 17.3934 13.4415 17.3934 12.0011C17.3934 10.5607 16.8325 9.20652 15.8139 8.188Z" fill="white"/>
<path d="M4.80078 9.96756V14.0345C4.80078 14.89 5.49682 15.586 6.35233 15.586H7.512V8.41602H6.35233C5.49682 8.41602 4.80078 9.11202 4.80078 9.96756V9.96756Z" fill="white"/>
<path d="M13.6758 5.50946C13.3588 5.33405 12.9562 5.37151 12.5713 5.61249L8.40039 8.22375V16.0737L12.5713 18.685C12.7962 18.8257 13.0271 18.8971 13.2434 18.8971C13.3974 18.8971 13.544 18.861 13.6758 18.788C13.9927 18.6124 14.1745 18.2513 14.1745 17.7972V6.50025C14.1745 6.04612 13.9927 5.68499 13.6758 5.50946Z" fill="white"/>
</svg>
