<svg width="11" height="8" viewBox="0 0 11 8" fill="none" xmlns="http://www.w3.org/2000/svg">
<path d="M5.17654 5.1328L8.83354 1.4758C8.90009 1.40272 8.98064 1.34372 9.0704 1.30232C9.16016 1.26092 9.25732 1.23794 9.35612 1.23476C9.45492 1.23157 9.55336 1.24824 9.6456 1.28378C9.73784 1.31932 9.82202 1.373 9.89314 1.44165C9.96427 1.5103 10.0209 1.59252 10.0597 1.68345C10.0985 1.77438 10.1186 1.87216 10.1189 1.97101C10.1192 2.06986 10.0997 2.16777 10.0615 2.25894C10.0233 2.35012 9.96722 2.4327 9.89654 2.5018L9.87854 2.5198L5.69954 6.6998C5.56095 6.83836 5.37301 6.9162 5.17704 6.9162C4.98107 6.9162 4.79312 6.83836 4.65454 6.6998L0.475536 2.5208C0.405739 2.45337 0.349907 2.37285 0.311228 2.28384C0.272549 2.19483 0.251781 2.09907 0.25011 2.00203C0.248438 1.90499 0.265896 1.80858 0.301486 1.71829C0.337077 1.628 0.390102 1.5456 0.457536 1.4758C0.52497 1.40601 0.605491 1.35017 0.694502 1.31149C0.783513 1.27282 0.879271 1.25205 0.976308 1.25038C1.07335 1.2487 1.16976 1.26616 1.26005 1.30175C1.35034 1.33734 1.43274 1.39037 1.50254 1.4578L1.52054 1.4758L5.17654 5.1328Z" fill="#12355B" stroke="#12355B" stroke-width="0.5"/>
</svg>
