<svg width="18" height="19" viewBox="0 0 18 19" fill="none" xmlns="http://www.w3.org/2000/svg">
<path d="M1.59889 9.7652C1.7872 10.3576 2.25447 10.8198 2.84885 11.0018C3.04559 11.0622 3.21728 11.1848 3.33821 11.3514C3.45913 11.518 3.52249 11.7195 3.51887 11.9252C3.51097 12.4365 3.70959 12.9294 4.06985 13.2923C4.32364 13.5454 4.64252 13.7234 4.99127 13.8065C5.34003 13.8895 5.70496 13.8744 6.04556 13.7627C6.24136 13.6966 6.45325 13.695 6.65012 13.7578C6.84699 13.8207 7.01855 13.9448 7.13989 14.1121C7.49639 14.622 8.08072 14.9241 8.70283 14.9203C9.32385 14.9195 9.90619 14.6185 10.2658 14.1121C10.385 13.9449 10.5547 13.8204 10.7499 13.7568C10.9452 13.6933 11.1557 13.694 11.3505 13.7588C11.6912 13.8705 12.056 13.8856 12.4048 13.8026C12.7535 13.7196 13.0724 13.5416 13.3262 13.2884C13.6865 12.9255 13.8851 12.4326 13.8773 11.9214C13.8735 11.7156 13.937 11.5142 14.0578 11.3476C14.1788 11.1809 14.3506 11.0583 14.5473 10.9979C15.1421 10.8153 15.6115 10.3559 15.8068 9.7652C16.0002 9.17737 15.8941 8.53211 15.5226 8.03726C15.399 7.8728 15.3321 7.6727 15.3321 7.46699C15.3321 7.26127 15.399 7.06118 15.5226 6.89671C15.8914 6.39878 15.9972 5.75349 15.8068 5.16381C15.6163 4.57426 15.1531 4.11274 14.5626 3.92455C14.3658 3.86415 14.1941 3.74147 14.0732 3.57487C13.9523 3.40826 13.8889 3.20684 13.8926 3.00113C13.897 2.48684 13.6926 1.99292 13.3262 1.6321C13.0725 1.37817 12.7532 1.19965 12.4042 1.11634C12.055 1.0329 11.6897 1.04803 11.3486 1.15973C11.1538 1.22241 10.9444 1.22187 10.7499 1.15852C10.5554 1.09504 10.386 0.971828 10.2657 0.806547C9.90575 0.300831 9.32344 0.000419472 8.7028 4.23283e-05C8.08096 -0.00410934 7.49677 0.297365 7.13985 0.806547C7.01945 0.972215 6.84963 1.0957 6.65488 1.15918C6.46002 1.22253 6.25 1.22279 6.05516 1.15971C5.85668 1.09181 5.64857 1.05672 5.43881 1.05605C4.92641 1.05873 4.43623 1.26605 4.07756 1.63209C3.71729 1.99504 3.51853 2.48789 3.52645 2.9991C3.53007 3.20494 3.46672 3.40638 3.34579 3.57297C3.22498 3.73945 3.05315 3.86226 2.85643 3.92265C2.26003 4.10172 1.78983 4.56256 1.59883 5.15533C1.40999 5.7434 1.51579 6.38653 1.88303 6.88326C2.0049 7.0484 2.07066 7.24823 2.07066 7.45354C2.07066 7.65872 2.0049 7.85866 1.88303 8.02381C1.51137 8.52377 1.40543 9.17307 1.59883 9.76515L1.59889 9.7652ZM2.65493 6.30919C2.47212 6.06022 2.42055 5.7384 2.51604 5.44468C2.61153 5.15084 2.84256 4.92103 3.13678 4.82699C3.5308 4.70605 3.87499 4.4603 4.11742 4.1268C4.3597 3.79332 4.48733 3.39021 4.48078 2.97809C4.47663 2.72309 4.5756 2.47721 4.75534 2.29639C4.93668 2.11558 5.18284 2.0146 5.43892 2.01607C5.54339 2.01647 5.64718 2.03402 5.74615 2.0679C6.13656 2.19969 6.5591 2.20237 6.95123 2.0754C7.34325 1.94857 7.68408 1.69894 7.9234 1.36329C8.10366 1.1123 8.3939 0.963652 8.70285 0.963652C9.01179 0.963652 9.30206 1.11231 9.4823 1.36329C9.8423 1.86887 10.4246 2.16928 11.0452 2.16969C11.2535 2.17009 11.4604 2.13634 11.6577 2.06991C11.8278 2.01313 12.0105 2.00509 12.1848 2.04687C12.3593 2.08866 12.5186 2.17839 12.6446 2.30603C12.8207 2.48429 12.9189 2.72534 12.9173 2.97607C12.911 3.38819 13.0386 3.79115 13.281 4.12465C13.5233 4.458 13.8672 4.70377 14.2612 4.82511C14.5555 4.91912 14.7865 5.14894 14.882 5.44266C14.9775 5.7365 14.9258 6.05819 14.7431 6.30731C14.4953 6.63705 14.3613 7.03829 14.3613 7.45068C14.3613 7.86317 14.4953 8.26441 14.7431 8.59404C14.9275 8.84328 14.9802 9.1662 14.8845 9.46109C14.7889 9.756 14.5567 9.98649 14.2612 10.0801C13.8671 10.2012 13.523 10.4469 13.2806 10.7803C13.0382 11.1138 12.9107 11.5169 12.9172 11.9292C12.9208 12.1835 12.8219 12.4284 12.6425 12.6088C12.5166 12.7365 12.3574 12.8262 12.1829 12.868C12.0085 12.9096 11.8258 12.9017 11.6558 12.845C11.2653 12.7138 10.8431 12.7118 10.4513 12.8391C10.0596 12.9662 9.71927 13.2161 9.48036 13.5516C9.29996 13.8024 9.00986 13.9512 8.70091 13.9512C8.39181 13.9512 8.1017 13.8024 7.92132 13.5516C7.68253 13.2161 7.34207 12.9662 6.95035 12.8391C6.55861 12.7118 6.13648 12.7138 5.74607 12.845C5.57585 12.9017 5.39331 12.9096 5.21879 12.868C5.04442 12.8262 4.88517 12.7365 4.75916 12.6088C4.57983 12.4284 4.48085 12.1835 4.48461 11.9292C4.49103 11.5169 4.36354 11.1138 4.12111 10.7803C3.87883 10.447 3.53465 10.2012 3.14061 10.0801C2.84637 9.9861 2.61535 9.75628 2.51973 9.46257C2.42424 9.16873 2.47593 8.84703 2.65861 8.59791C2.90544 8.26912 3.03911 7.8692 3.03977 7.45805C3.04042 7.04689 2.90812 6.64657 2.66249 6.31698L2.65493 6.30919ZM0.158896 16.3145C0.0572456 16.1633 0.00206611 15.9858 5.69696e-05 15.8037C-0.00195196 15.6215 0.0492091 15.4428 0.147379 15.2893L1.83502 12.6013C1.90038 12.4885 2.00873 12.4074 2.13529 12.3762C2.26172 12.345 2.39538 12.3665 2.50575 12.4359C2.61597 12.5052 2.69338 12.6163 2.72003 12.7438C2.74668 12.8713 2.72043 13.0043 2.64717 13.112L0.982571 15.7789L2.50132 15.5331C2.71909 15.4954 2.94316 15.5392 3.13077 15.656C3.31854 15.7727 3.45662 15.9546 3.51889 16.1667L3.95281 17.6432L5.65197 14.9437V14.9436C5.71197 14.8209 5.82152 14.7294 5.95318 14.6925C6.08469 14.6555 6.22585 14.6762 6.34115 14.7498C6.45633 14.8232 6.53481 14.9422 6.55691 15.0772C6.57888 15.2121 6.54232 15.35 6.45647 15.4563L4.73992 18.1827C4.56956 18.4577 4.26877 18.6249 3.94504 18.6244C3.90031 18.6274 3.85544 18.6274 3.81071 18.6244C3.63151 18.5989 3.4637 18.522 3.32735 18.4031C3.19101 18.2842 3.09217 18.1283 3.04262 17.9542L2.61446 16.4969L1.11501 16.7408C0.933001 16.7728 0.745513 16.75 0.576348 16.6756C0.407196 16.6011 0.263892 16.4781 0.164645 16.3222L0.158896 16.3145ZM15.5648 12.6147L17.2525 15.3026C17.3837 15.5098 17.4292 15.76 17.3794 16.0001C17.3296 16.2403 17.1883 16.4516 16.9856 16.5894C16.7826 16.7274 16.5341 16.781 16.2925 16.7389L14.793 16.495L14.3725 17.9523C14.323 18.1263 14.2241 18.2823 14.0879 18.4012C13.9515 18.5202 13.7836 18.5969 13.6045 18.6224C13.5598 18.6254 13.5148 18.6254 13.47 18.6224C13.1465 18.623 12.8457 18.4559 12.6752 18.1808L10.9491 15.4563C10.8193 15.2327 10.8899 14.9467 11.1087 14.809C11.3276 14.6714 11.6161 14.7318 11.7612 14.9456L13.4604 17.6451L13.8867 16.1668C13.9488 15.9565 14.0854 15.7762 14.2711 15.6596C14.4567 15.5429 14.6783 15.4979 14.8948 15.5331L16.4135 15.7808L14.7431 13.1274H14.743C14.6132 12.9037 14.6838 12.6176 14.9027 12.4801C15.1215 12.3424 15.4098 12.4028 15.5551 12.6166L15.5648 12.6147ZM7.88483 11.6547C8.15737 11.7081 8.43446 11.7352 8.71238 11.7353C10.1952 11.7354 11.5731 10.9695 12.3559 9.71005C13.1386 8.45046 13.2152 6.87599 12.5584 5.54639C11.9016 4.21689 10.6047 3.3209 9.12882 3.17707C7.65293 3.03323 6.20731 3.66204 5.30631 4.83966C4.40525 6.01744 4.17636 7.57717 4.70124 8.96424C5.22612 10.3513 6.42999 11.3687 7.88511 11.6549L7.88483 11.6547ZM5.44828 6.81628C5.59761 6.06306 6.00368 5.38485 6.59713 4.89748C7.19068 4.4101 7.93482 4.14374 8.70275 4.1436C8.9181 4.14414 9.13279 4.1653 9.34399 4.20708C10.2068 4.37758 10.9665 4.88382 11.4559 5.61455C11.9454 6.34515 12.1246 7.24031 11.954 8.10308C11.7834 8.96585 11.2771 9.72548 10.5464 10.2149C9.81569 10.7044 8.9205 10.8835 8.05773 10.7128C7.19497 10.5422 6.43533 10.0357 5.94594 9.30497C5.45655 8.57427 5.27764 7.67907 5.44825 6.8163L5.44828 6.81628ZM7.1264 7.8166C6.93876 7.62897 6.93876 7.32467 7.1264 7.13692C7.31416 6.94929 7.61846 6.94929 7.80607 7.13692L8.27455 7.6054L9.60124 6.28057C9.78901 6.09293 10.0933 6.09293 10.2809 6.28057C10.4687 6.46833 10.4687 6.77263 10.2809 6.96025L8.61631 8.62486V8.62499C8.52618 8.71526 8.40404 8.76602 8.2764 8.76602C8.1489 8.76602 8.02662 8.71526 7.93662 8.62499L7.1264 7.8166Z" fill="#5832DA"/>
</svg>
