<svg width="1156" height="291" viewBox="0 0 1156 291" fill="none" xmlns="http://www.w3.org/2000/svg">
<g opacity="0.3">
<rect width="1156" height="291" fill="url(#paint0_linear_1_4)"/>
<rect width="1156" height="291" fill="white" fill-opacity="0.75"/>
</g>
<path d="M1113.11 222.961C1113.14 225.273 1112.73 227.573 1111.9 229.749C1111.14 231.683 1109.98 233.458 1108.49 234.969C1106.95 236.489 1105.2 237.802 1103.28 238.87C1101.1 240.084 1098.83 241.132 1096.47 242.003V250.725H1082.52V237.935C1084.24 237.492 1085.94 236.968 1087.6 236.366C1089.35 235.756 1091.01 234.928 1092.53 233.906C1093.97 232.965 1095.22 231.785 1096.21 230.423C1097.19 229.027 1097.69 227.387 1097.64 225.72C1097.64 223.195 1096.79 221.359 1095.07 220.211C1093.36 219.063 1090.98 218.489 1087.94 218.489C1085.43 218.524 1082.96 219.003 1080.64 219.901C1078.52 220.634 1076.48 221.586 1074.59 222.739H1073.41V211.248C1079.27 209.084 1085.52 207.968 1091.82 207.957C1094.89 207.911 1097.95 208.292 1100.9 209.088C1103.33 209.745 1105.6 210.814 1107.61 212.241C1109.36 213.514 1110.76 215.146 1111.71 217.009C1112.67 218.873 1113.15 220.918 1113.12 222.985L1113.11 222.961ZM1097.63 266H1081.51V255.93H1097.63V266ZM1124.48 104.96H1123.1C1122.87 102.24 1122.39 99.5424 1121.67 96.8975L1120.05 90.5023C1119.07 86.6849 1118.58 83.9481 1118.58 82.292C1118.55 81.6281 1118.66 80.965 1118.91 80.3422C1119.16 79.7193 1119.54 79.1494 1120.03 78.6664C1120.52 78.2078 1121.1 77.8491 1121.75 77.6128C1122.39 77.3766 1123.08 77.268 1123.78 77.2939C1124.47 77.2753 1125.16 77.3901 1125.81 77.6313C1126.45 77.8724 1127.04 78.2348 1127.53 78.6959C1128.02 79.157 1128.4 79.7071 1128.65 80.3121C1128.9 80.9171 1129.02 81.5642 1129 82.2133C1129 83.6923 1128.47 86.4587 1127.42 90.5122L1125.76 96.9073C1125.11 99.5569 1124.68 102.249 1124.48 104.96V104.96ZM1123.83 109.152C1124.5 109.143 1125.16 109.262 1125.77 109.502C1126.38 109.741 1126.94 110.096 1127.4 110.544C1128.35 111.442 1128.89 112.655 1128.89 113.918C1128.89 115.182 1128.35 116.395 1127.4 117.293C1126.69 117.954 1125.79 118.403 1124.81 118.584C1123.83 118.765 1122.81 118.669 1121.88 118.31C1120.96 117.95 1120.17 117.342 1119.62 116.563C1119.06 115.784 1118.77 114.869 1118.77 113.933C1118.76 113.307 1118.88 112.686 1119.14 112.106C1119.39 111.527 1119.76 111 1120.24 110.559C1120.7 110.104 1121.26 109.744 1121.87 109.502C1122.49 109.259 1123.16 109.14 1123.83 109.152V109.152ZM844.875 91.56H841.192C841.065 85.0238 841.4 80.134 842.197 76.8905C842.993 73.647 845.066 69.1852 848.416 63.505C851.762 57.8182 853.962 53.2531 855.014 49.8095C856.067 46.366 856.593 42.1025 856.593 37.0192C856.593 29.1811 854.942 23.4074 851.641 19.6982C848.341 15.989 844.433 14.1328 839.918 14.1295C836.488 14.1295 833.606 14.9806 831.273 16.6826C829.519 17.9715 828.643 19.3194 828.643 20.7264C828.643 21.6709 829.241 23.1385 830.437 25.1292C833.145 29.6451 834.499 33.4871 834.499 36.6552C834.535 37.9968 834.273 39.3308 833.729 40.5729C833.186 41.8151 832.373 42.9384 831.342 43.8719C830.304 44.8292 829.07 45.5799 827.713 46.0787C826.357 46.5776 824.906 46.8142 823.449 46.7743C821.793 46.8072 820.148 46.5147 818.621 45.9155C817.094 45.3164 815.718 44.4241 814.583 43.2963C812.194 40.9744 811 37.9047 811 34.0873C811 27.151 814.22 21.0691 820.66 15.8414C827.101 10.6138 836.1 8 847.658 8C859.908 8 869.238 10.7253 875.651 16.176C882.063 21.6266 885.267 28.2136 885.264 35.937C885.289 41.4532 883.56 46.8521 880.297 51.4477C876.982 56.1965 870.58 61.4569 861.091 67.2289C854.725 71.1185 850.538 74.5817 848.532 77.6186C846.525 80.6555 845.306 85.3026 844.875 91.56ZM844.112 104.395C847.62 104.406 851.015 105.553 853.72 107.641C856.424 109.73 858.271 112.63 858.946 115.848C859.621 119.066 859.082 122.404 857.422 125.292C855.761 128.181 853.08 130.442 849.837 131.691C846.593 132.94 842.987 133.099 839.632 132.142C836.277 131.184 833.381 129.17 831.436 126.44C829.491 123.711 828.618 120.436 828.965 117.172C829.313 113.909 830.859 110.859 833.341 108.542C834.741 107.202 836.418 106.144 838.27 105.431C840.121 104.718 842.109 104.365 844.112 104.395V104.395Z" fill="#EEEAFB"/>
<defs>
<linearGradient id="paint0_linear_1_4" x1="105.967" y1="15.3894" x2="195.958" y2="465.424" gradientUnits="userSpaceOnUse">
<stop stop-color="#D4FAEA"/>
<stop offset="1" stop-color="#B79FD4"/>
</linearGradient>
</defs>
</svg>
