<svg width="318" height="258" viewBox="0 0 318 258" fill="none" xmlns="http://www.w3.org/2000/svg">
<path d="M302.106 214.961C302.144 217.273 301.734 219.573 300.896 221.749C300.141 223.683 298.982 225.458 297.486 226.969C295.952 228.489 294.199 229.802 292.277 230.87C290.103 232.084 287.828 233.132 285.474 234.003V242.725H271.52V229.935C273.241 229.492 274.938 228.968 276.603 228.366C278.355 227.756 280.011 226.928 281.528 225.906C282.972 224.965 284.221 223.785 285.211 222.423C286.187 221.027 286.686 219.387 286.642 217.72C286.642 215.195 285.786 213.359 284.074 212.211C282.363 211.063 279.984 210.489 276.939 210.489C274.433 210.524 271.957 211.003 269.641 211.901C267.516 212.634 265.485 213.586 263.585 214.739H262.407V203.248C268.271 201.084 274.518 199.968 280.823 199.957C283.891 199.911 286.95 200.292 289.899 201.088C292.325 201.745 294.601 202.814 296.613 204.241C298.355 205.514 299.759 207.146 300.715 209.009C301.671 210.873 302.152 212.919 302.122 214.985L302.106 214.961ZM286.632 258H270.51V247.93H286.632V258ZM313.477 96.9603H312.103C311.871 94.2397 311.393 91.5424 310.672 88.8975L309.052 82.5023C308.073 78.6849 307.584 75.9481 307.584 74.292C307.552 73.6281 307.663 72.965 307.91 72.3422C308.158 71.7193 308.537 71.1494 309.025 70.6664C309.515 70.2078 310.102 69.8491 310.747 69.6128C311.393 69.3766 312.084 69.268 312.777 69.2939C313.471 69.2753 314.162 69.3901 314.808 69.6313C315.453 69.8724 316.038 70.2348 316.527 70.6959C317.016 71.157 317.399 71.7071 317.652 72.3121C317.905 72.9171 318.022 73.5642 317.997 74.2133C317.997 75.6923 317.47 78.4587 316.418 82.5122L314.755 88.9073C314.108 91.5569 313.68 94.2492 313.477 96.9603ZM312.83 101.152C313.495 101.143 314.156 101.262 314.77 101.502C315.385 101.741 315.94 102.096 316.402 102.544C317.353 103.442 317.887 104.655 317.887 105.918C317.887 107.182 317.353 108.395 316.402 109.293C315.693 109.954 314.79 110.403 313.808 110.584C312.826 110.765 311.809 110.669 310.885 110.31C309.96 109.95 309.171 109.342 308.616 108.563C308.062 107.784 307.766 106.869 307.768 105.933C307.758 105.307 307.883 104.686 308.135 104.106C308.387 103.527 308.762 103 309.236 102.559C309.698 102.104 310.256 101.744 310.874 101.502C311.493 101.259 312.159 101.14 312.83 101.152ZM33.8749 83.56H30.1917C30.0654 77.0238 30.4004 72.134 31.1967 68.8905C31.9929 65.647 34.0661 61.1852 37.416 55.505C40.7625 49.8182 42.9618 45.2531 44.0142 41.8095C45.0665 38.366 45.5927 34.1025 45.5927 29.0192C45.5927 21.1811 43.9423 15.4074 40.6414 11.6982C37.3406 7.98902 33.4329 6.13279 28.9183 6.12951C25.4877 6.12951 22.6061 6.98056 20.2734 8.68265C18.5195 9.97152 17.6425 11.3194 17.6425 12.7264C17.6425 13.6709 18.2406 15.1385 19.4368 17.1292C22.1448 21.6451 23.4988 25.4871 23.4988 28.6552C23.5348 29.9968 23.2728 31.3308 22.7294 32.5729C22.1861 33.8151 21.373 34.9384 20.3418 35.8719C19.3042 36.8292 18.0699 37.5799 16.7134 38.0787C15.3569 38.5776 13.9063 38.8142 12.4492 38.7743C10.7933 38.8072 9.14846 38.5147 7.62118 37.9155C6.09389 37.3164 4.71822 36.4241 3.58322 35.2963C1.19441 32.9744 0 29.9047 0 26.0873C0 19.151 3.22016 13.0691 9.66049 7.84144C16.1008 2.61381 25.1001 0 36.6583 0C48.9076 0 58.2383 2.72532 64.6506 8.17596C71.0629 13.6266 74.2672 20.2136 74.2637 27.937C74.2892 33.4532 72.5603 38.8521 69.2967 43.4477C65.9818 48.1965 59.5801 53.4569 50.0915 59.2289C43.7248 63.1185 39.5382 66.5817 37.5318 69.6186C35.5253 72.6554 34.3063 77.3026 33.8749 83.56ZM33.1119 96.3946C36.6197 96.4057 40.0149 97.5531 42.7196 99.6414C45.4243 101.73 47.2714 104.63 47.9464 107.848C48.6213 111.066 48.0825 114.404 46.4216 117.292C44.7606 120.181 42.0803 122.442 38.8368 123.691C35.5933 124.94 31.9871 125.099 28.6321 124.142C25.2771 123.184 22.3807 121.17 20.4359 118.44C18.491 115.711 17.618 112.436 17.9654 109.172C18.3128 105.909 19.8591 102.859 22.3412 100.542C23.7408 99.2022 25.4177 98.1436 27.2696 97.4306C29.1215 96.7176 31.1094 96.3651 33.1119 96.3946Z" fill="#EEEAFB"/>
</svg>
