<svg width="12" height="12" viewBox="0 0 12 12" fill="none" xmlns="http://www.w3.org/2000/svg">
<path fill-rule="evenodd" clip-rule="evenodd" d="M12 11.1516L11.1516 12L8.6058 9.45479L9.4542 8.60579L12 11.1516ZM4.8 8.40004C2.8152 8.40004 1.2 6.78544 1.2 4.80005C1.2 2.81525 2.8152 1.20005 4.8 1.20005C6.7848 1.20005 8.4 2.81525 8.4 4.80005C8.4 6.78544 6.7848 8.40004 4.8 8.40004ZM4.8 0C2.1492 0 0 2.1492 0 4.8C0 7.4508 2.1492 9.6 4.8 9.6C7.4508 9.6 9.6 7.4508 9.6 4.8C9.6 2.1492 7.4508 0 4.8 0Z" fill="#808080"/>
</svg>
