<svg width="32" height="32" viewBox="0 0 32 32" fill="none" xmlns="http://www.w3.org/2000/svg">
<g clip-path="url(#clip0_4505_1435)">
<path d="M10.8889 18.976C10.9432 18.6404 11.1154 18.3352 11.3746 18.1152C11.6338 17.8953 11.9629 17.775 12.3029 17.776H15.2429C21.0209 17.776 25.5429 15.448 26.8649 8.714C26.9049 8.514 26.9669 8.13 26.9669 8.13C27.3429 5.638 26.9649 3.948 25.6069 2.414C24.1149 0.724004 21.4149 3.61916e-06 17.9609 3.61916e-06H7.93689C7.59658 -0.000760598 7.26709 0.119526 7.00732 0.339363C6.74755 0.559199 6.57442 0.864256 6.51889 1.2L2.34489 27.462C2.3261 27.5843 2.33404 27.7092 2.36818 27.8282C2.40231 27.9471 2.46183 28.0572 2.54262 28.1509C2.62341 28.2446 2.72356 28.3197 2.83616 28.371C2.94877 28.4223 3.07116 28.4486 3.19489 28.448H9.38289L10.9369 18.668L10.8889 18.976Z" fill="#0D47A1"/>
<path d="M15.2432 19.5443H12.6072L10.6392 32.0002H14.9152C15.2132 32.0012 15.5019 31.8958 15.7292 31.703C15.9565 31.5101 16.1075 31.2425 16.1552 30.9482L16.2052 30.6842L17.1892 24.5023L17.2532 24.1623C17.3007 23.8683 17.4515 23.601 17.6784 23.4082C17.9052 23.2154 18.1934 23.1098 18.4912 23.1103H19.2732C24.3272 23.1103 28.2832 21.0742 29.4392 15.1842C29.9032 12.8202 29.6792 10.8383 28.5332 9.40625C27.0972 16.0363 22.5152 19.5443 15.2432 19.5443Z" fill="#0D47A1"/>
</g>
<defs>
<clipPath id="clip0_4505_1435">
<rect width="32" height="32" fill="white"/>
</clipPath>
</defs>
</svg>
