<svg width="23" height="18" viewBox="0 0 23 18" fill="none" xmlns="http://www.w3.org/2000/svg">
<path fill-rule="evenodd" clip-rule="evenodd" d="M11.9315 0.4375C9.37726 0.4375 7.32563 2.4902 7.32563 5.04575C7.32563 7.60205 9.37709 9.65492 11.9315 9.65492C14.4859 9.65492 16.5373 7.60205 16.5373 5.04575C16.5373 2.4902 14.4857 0.4375 11.9315 0.4375ZM11.9315 1.9375C13.6577 1.9375 15.0381 3.31863 15.0381 5.04575C15.0381 6.77367 13.6578 8.15492 11.9315 8.15492C10.2051 8.15492 8.82484 6.77367 8.82484 5.04575C8.82484 3.31863 10.2053 1.9375 11.9315 1.9375ZM6.28665 1.37937C6.70065 1.37937 7.03626 1.71516 7.03626 2.12938C7.03626 2.54359 6.70065 2.87938 6.28665 2.87938C5.0989 2.87938 4.13561 3.84275 4.13561 5.03063C4.13561 6.2185 5.0989 7.18188 6.28665 7.18188C6.70065 7.18188 7.03626 7.51766 7.03626 7.93188C7.03626 8.34609 6.70065 8.68188 6.28665 8.68188C4.27105 8.68188 2.63639 7.04707 2.63639 5.03063C2.63639 3.01418 4.27105 1.37937 6.28665 1.37937ZM21.2359 5.03063C21.2359 3.01418 19.6012 1.37937 17.5856 1.37937C17.1716 1.37937 16.836 1.71516 16.836 2.12938C16.836 2.54359 17.1716 2.87938 17.5856 2.87938C18.7734 2.87938 19.7367 3.84275 19.7367 5.03063C19.7367 6.2185 18.7734 7.18188 17.5856 7.18188C17.1716 7.18188 16.836 7.51766 16.836 7.93188C16.836 8.34609 17.1716 8.68188 17.5856 8.68188C19.6012 8.68188 21.2359 7.04707 21.2359 5.03063ZM20.4851 10.555C20.0051 10.4466 19.4922 10.3725 18.9707 10.3365C18.5577 10.308 18.1998 10.6199 18.1713 11.0331C18.1428 11.4464 18.4546 11.8045 18.8676 11.833C19.3139 11.8638 19.7512 11.9269 20.1765 12.0227C20.8378 12.1525 21.269 12.3678 21.376 12.5921C21.4565 12.7615 21.4565 12.9606 21.3752 13.132C21.2696 13.3541 20.8421 13.5682 20.1901 13.7024C19.7846 13.7858 19.5234 14.1823 19.6068 14.5881C19.6902 14.9938 20.0866 15.2551 20.4921 15.1716C21.5697 14.9499 22.3591 14.5546 22.7294 13.7756C23.004 13.1964 23.004 12.5247 22.7295 11.947C22.3565 11.1651 21.5535 10.7643 20.4851 10.555ZM5.70097 11.0331C5.67249 10.6199 5.31458 10.308 4.90156 10.3365C4.38005 10.3725 3.86714 10.4466 3.36663 10.5593L3.16029 10.603C2.21316 10.8195 1.49059 11.2174 1.14376 11.9469C0.868048 12.5241 0.868048 13.197 1.14405 13.7762C1.51278 14.5544 2.30214 14.9498 3.38023 15.1716C3.78574 15.2551 4.18207 14.9938 4.26546 14.5881C4.34885 14.1823 4.08771 13.7858 3.6822 13.7024C3.03045 13.5683 2.6033 13.3543 2.49803 13.1321C2.41601 12.96 2.41601 12.7621 2.49702 12.5925C2.60395 12.3676 3.03469 12.1525 3.67523 12.027L4.00829 11.9588C4.3403 11.8974 4.67 11.8561 5.00471 11.833C5.41773 11.8045 5.72945 11.4464 5.70097 11.0331ZM5.16434 14.1846C5.16434 11.7986 7.63099 10.9595 11.9315 10.9595L12.2362 10.961C16.3569 10.9997 18.6986 11.8407 18.6986 14.1671C18.6986 16.4388 16.4602 17.3087 12.5331 17.3863L11.9315 17.3921C7.62113 17.3921 5.16434 16.5678 5.16434 14.1846ZM17.1994 14.1671C17.1994 13.0566 15.4198 12.4595 11.9315 12.4595C8.44658 12.4595 6.66355 13.0661 6.66355 14.1846C6.66355 15.2952 8.44261 15.8921 11.9315 15.8921C15.4153 15.8921 17.1994 15.2851 17.1994 14.1671Z" fill="#12355B"/>
</svg>
