<svg width="20" height="20" viewBox="0 0 20 20" fill="none" xmlns="http://www.w3.org/2000/svg">
<path fill-rule="evenodd" clip-rule="evenodd" d="M11.4489 10L19.2795 17.8305C19.679 18.23 19.6789 18.8778 19.2792 19.2772C18.8797 19.6764 18.2323 19.6763 17.833 19.2769L10.0029 11.446L2.17195 19.277C1.77264 19.6763 1.12522 19.6763 0.725909 19.277C0.326612 18.8777 0.326593 18.2303 0.725866 17.831L8.55593 10L0.725867 2.16902C0.326593 1.7697 0.326611 1.12232 0.725909 0.723021C1.12522 0.323708 1.77264 0.323708 2.17195 0.723021L10.0029 8.554L17.8329 0.723064C18.2323 0.323694 18.8797 0.323562 19.2792 0.722771C19.6789 1.12216 19.679 1.76995 19.2795 2.16948L11.4489 10Z" fill="#12355B"/>
</svg>
