<svg width="25" height="25" viewBox="0 0 25 25" fill="none" xmlns="http://www.w3.org/2000/svg">
<path d="M22.3342 11.5101L12.7613 21.083C11.5885 22.2558 9.99794 22.9146 8.33941 22.9146C6.68089 22.9146 5.09029 22.2558 3.91754 21.083C2.74478 19.9103 2.08594 18.3197 2.08594 16.6612C2.08594 15.0026 2.74478 13.4121 3.91754 12.2393L13.4905 2.66638C14.2723 1.88454 15.3327 1.44531 16.4384 1.44531C17.5441 1.44531 18.6045 1.88454 19.3863 2.66638C20.1681 3.44822 20.6074 4.50861 20.6074 5.6143C20.6074 6.71998 20.1681 7.78038 19.3863 8.56221L9.80296 18.1351C9.41204 18.526 8.88184 18.7457 8.329 18.7457C7.77616 18.7457 7.24596 18.526 6.85504 18.1351C6.46412 17.7442 6.2445 17.214 6.2445 16.6612C6.2445 16.1083 6.46412 15.5781 6.85504 15.1872L15.6988 6.35388" stroke="#ADA8BE" stroke-linecap="round" stroke-linejoin="round"/>
</svg>
