<svg width="24" height="24" viewBox="0 0 24 24" fill="none" xmlns="http://www.w3.org/2000/svg">
<path d="M11.9964 19.714C15.7547 19.714 18.8569 16.7107 18.8569 13.0721C18.8569 10.9994 17.7897 9.0357 16.1856 7.86776C15.8277 7.5854 15.3902 7.63674 15.1714 7.93835C14.9328 8.25279 15.0389 8.63141 15.3438 8.89452C16.6496 9.86352 17.4781 11.3587 17.4848 13.0721C17.4914 16.0177 15.0389 18.3856 11.9964 18.3856C8.95394 18.3856 6.5213 16.0177 6.5213 13.0721C6.5213 10.5823 8.25796 8.50948 10.6309 7.92551V8.85601C10.6309 9.35014 11.0088 9.4849 11.4197 9.19613L13.6602 7.6624C13.9916 7.42497 13.9982 7.0656 13.6602 6.83458L11.4264 5.29444C11.0088 5.00566 10.6309 5.13401 10.6309 5.63455V6.57147C7.51557 7.19394 5.14258 9.88919 5.14258 13.0721C5.14258 16.7107 8.2447 19.714 11.9964 19.714ZM10.1007 15.761C10.3989 15.761 10.5845 15.5685 10.5845 15.2604V11.2817C10.5845 10.8967 10.3724 10.6978 10.0211 10.6978C9.80901 10.6978 9.64993 10.7619 9.39142 10.948L8.53635 11.5384C8.35738 11.6796 8.27784 11.808 8.27784 11.9812C8.27784 12.2122 8.47007 12.4048 8.70206 12.4048C8.85452 12.4048 8.94069 12.3663 9.06663 12.2507L9.62342 11.8144V15.2604C9.62342 15.562 9.80901 15.761 10.1007 15.761ZM13.4282 15.8252C14.5417 15.8252 15.2709 15.1321 15.2709 14.0668C15.2709 13.1107 14.608 12.4561 13.6999 12.4561C13.2956 12.4561 12.8714 12.6422 12.6858 12.9438L12.7918 11.5962H14.6942C14.9328 11.5962 15.1118 11.4165 15.1118 11.1726C15.1118 10.9288 14.9328 10.7684 14.6942 10.7684H12.5863C12.2218 10.7684 12.0163 10.9801 11.9898 11.3523L11.8572 13.1812C11.8241 13.5278 12.0229 13.701 12.3345 13.701C12.5797 13.701 12.6725 13.6561 12.8515 13.5214C13.0835 13.3224 13.2757 13.2326 13.5342 13.2326C14.0247 13.2326 14.3429 13.5791 14.3429 14.0861C14.3429 14.6123 13.9651 14.9973 13.4613 14.9973C13.0835 14.9973 12.7786 14.792 12.6062 14.4839C12.5068 14.3299 12.3875 14.2401 12.2019 14.2401C11.9566 14.2401 11.7843 14.4069 11.7843 14.6508C11.7843 14.7471 11.8042 14.8369 11.844 14.9332C12.0229 15.3759 12.6129 15.8252 13.4282 15.8252Z" fill="white"/>
</svg>
