<svg width="40" height="40" viewBox="0 0 40 40" fill="none" xmlns="http://www.w3.org/2000/svg">
<path d="M26.6667 20.0088C26.6667 20.43 26.5341 20.8528 26.2689 21.1914C26.2192 21.2578 25.9872 21.5316 25.8049 21.7098L25.7055 21.8071C24.3134 23.283 20.8499 25.5025 19.0933 26.2137C19.0933 26.2299 18.0492 26.6527 17.5521 26.6673H17.4858C16.7235 26.6673 16.0109 26.2477 15.6463 25.5673C15.4474 25.193 15.2652 24.1076 15.2486 24.093C15.0994 23.1193 15 21.6288 15 19.9926C15 18.2769 15.0994 16.72 15.2817 15.7641C15.2817 15.7479 15.464 14.8731 15.58 14.5815C15.7623 14.1618 16.0938 13.8038 16.508 13.577C16.8395 13.4166 17.1875 13.334 17.5521 13.334C17.9332 13.3518 18.6458 13.5932 18.9276 13.7066C20.7836 14.4194 24.33 16.7524 25.6889 18.1781C25.9209 18.4049 26.1695 18.6819 26.2358 18.7451C26.5175 19.1015 26.6667 19.5389 26.6667 20.0088Z" fill="white"/>
</svg>
