<svg width="24" height="24" viewBox="0 0 24 24" fill="none" xmlns="http://www.w3.org/2000/svg">
<path d="M12.0667 8.40039C8.72654 8.40039 6 11.1269 6 14.4671C6 14.6969 6.09131 14.9174 6.25381 15.0799C6.41641 15.2424 6.63685 15.3337 6.86667 15.3337C7.09649 15.3337 7.31694 15.2424 7.47953 15.0799C7.64203 14.9173 7.73334 14.6969 7.73334 14.4671C7.73334 12.0636 9.66324 10.1337 12.0667 10.1337C14.4701 10.1337 16.4 12.0636 16.4 14.4671C16.4 14.6969 16.4913 14.9174 16.6538 15.0799C16.8164 15.2424 17.0369 15.3337 17.2667 15.3337C17.4965 15.3337 17.717 15.2424 17.8796 15.0799C18.0421 14.9173 18.1334 14.6969 18.1334 14.4671C18.1334 11.1269 15.4068 8.40039 12.0667 8.40039Z" fill="white"/>
<path d="M13.7992 11.8672C13.5094 11.8672 13.2389 12.012 13.0781 12.2531L11.3448 14.8531C11.2173 15.0444 11.171 15.2785 11.216 15.5038C11.2611 15.7292 11.3939 15.9275 11.5851 16.055C11.7764 16.1824 12.0105 16.2288 12.2358 16.1837C12.4612 16.1386 12.6595 16.0058 12.787 15.8146L14.5203 13.2146C14.6478 13.0234 14.6941 12.7893 14.6491 12.5639C14.604 12.3385 14.4712 12.1403 14.28 12.0128C14.1376 11.9179 13.9703 11.8672 13.7992 11.8672V11.8672Z" fill="white"/>
</svg>
