<svg width="12" height="12" viewBox="0 0 12 12" fill="none" xmlns="http://www.w3.org/2000/svg">
<path fill-rule="evenodd" clip-rule="evenodd" d="M4.9387 1C3.46393 1 2.2797 2.18405 2.2797 3.659C2.2797 5.13361 3.46409 6.318 4.9387 6.318C6.41365 6.318 7.5977 5.13377 7.5977 3.659C7.5977 2.18389 6.41381 1 4.9387 1ZM4.9387 1.75C5.99959 1.75 6.8477 2.59811 6.8477 3.659C6.8477 4.71958 5.99941 5.568 4.9387 5.568C3.87831 5.568 3.0297 4.71939 3.0297 3.659C3.0297 2.59829 3.87812 1.75 4.9387 1.75ZM4.9387 7.22815C2.42369 7.22815 1.0002 7.70538 1.0002 9.05765C1.0002 10.4114 2.43001 10.8977 4.9387 10.8977L5.26045 10.8949C7.5742 10.8545 8.8772 10.3613 8.8772 9.06815C8.8772 7.74382 7.50888 7.2497 5.10078 7.22884L4.9387 7.22815ZM4.9387 7.97815C7.03943 7.97815 8.1272 8.34807 8.1272 9.06815C8.1272 9.78376 7.0421 10.1476 4.9387 10.1476C2.83797 10.1476 1.7502 9.77773 1.7502 9.05765C1.7502 8.36109 2.77688 7.99806 4.77034 7.97895L4.9387 7.97815ZM9.60205 3.9596C9.7919 3.9596 9.9488 4.10068 9.97363 4.28371L9.97705 4.3346V4.96205H10.625C10.8321 4.96205 11 5.12994 11 5.33705C11 5.5269 10.8589 5.6838 10.6759 5.70863L10.625 5.71205H9.97705V6.3396C9.97705 6.54671 9.80916 6.7146 9.60205 6.7146C9.4122 6.7146 9.25531 6.57352 9.23047 6.39049L9.22705 6.3396V5.71205H8.58C8.37289 5.71205 8.205 5.54416 8.205 5.33705C8.205 5.1472 8.34608 4.9903 8.52911 4.96547L8.58 4.96205H9.22705V4.3346C9.22705 4.12749 9.39494 3.9596 9.60205 3.9596Z" fill="white"/>
</svg>
