<svg width="24" height="24" viewBox="0 0 24 24" fill="none" xmlns="http://www.w3.org/2000/svg">
<path fill-rule="evenodd" clip-rule="evenodd" d="M16.3346 2.00024H7.66561C4.26804 2.00024 2.00061 4.43284 2.00061 7.91624V16.0842C2.00061 19.5709 4.26198 22.0002 7.66561 22.0002H16.3336C19.7382 22.0002 22.0006 19.5709 22.0006 16.0842V7.91624C22.0006 4.42975 19.7384 2.00024 16.3346 2.00024ZM7.66561 3.50024H16.3346C18.8851 3.50024 20.5006 5.23521 20.5006 7.91624V16.0842C20.5006 18.7654 18.885 20.5002 16.3336 20.5002H7.66561C5.11537 20.5002 3.50061 18.7656 3.50061 16.0842V7.91624C3.50061 5.23862 5.12095 3.50024 7.66561 3.50024ZM11.9999 7.45434C12.4141 7.45434 12.7499 7.79013 12.7499 8.20434C12.7499 8.58404 12.4678 8.89784 12.1017 8.9475L11.9899 8.95434C11.5757 8.95434 11.2399 8.61856 11.2399 8.20434C11.2399 7.82465 11.5221 7.51085 11.8881 7.46119L11.9999 7.45434ZM11.9899 10.6271C12.3696 10.6271 12.6834 10.9093 12.7331 11.2754L12.7399 11.3771V15.7961C12.7399 16.2104 12.4041 16.5461 11.9899 16.5461C11.6102 16.5461 11.2964 16.264 11.2468 15.8979L11.2399 15.7961V11.3771C11.2399 10.9629 11.5757 10.6271 11.9899 10.6271Z" fill="#200E32"/>
</svg>
