<svg width="12" height="12" viewBox="0 0 12 12" fill="none" xmlns="http://www.w3.org/2000/svg">
<path fill-rule="evenodd" clip-rule="evenodd" d="M6.1441 2.00241L6.001 2C3.93054 2 2.06463 3.46154 1.03046 5.85292C0.989848 5.94682 0.989848 6.05318 1.03046 6.14708L1.10212 6.3084C2.12319 8.54657 3.88772 9.93218 5.8559 9.99759L5.999 10C8.06946 10 9.93537 8.53846 10.9695 6.14708C11.0107 6.05199 11.0101 5.9442 10.9681 5.84952L10.8984 5.69282C9.87486 3.45046 8.10958 2.06773 6.1441 2.00241ZM6.0045 2.74471L6.12397 2.74728L6.25747 2.75423C7.85608 2.86742 9.32627 4.05276 10.2145 5.99955L10.2099 6.01157C9.29935 8.00023 7.77847 9.19264 6.12944 9.25248L6.002 9.2544L5.87347 9.25268L5.7403 9.24575C4.19136 9.13603 2.76319 8.0172 1.86957 6.17985L1.785 5.99955L1.86329 5.8331C2.80559 3.88657 4.34574 2.74513 6.0045 2.74471ZM5.99975 4.05673C4.91955 4.05673 4.04425 4.92657 4.04425 6.0001C4.04425 7.07323 4.91964 7.94297 5.99975 7.94297C7.07992 7.94297 7.95575 7.07317 7.95575 6.0001C7.95575 4.92662 7.08001 4.05673 5.99975 4.05673ZM5.99975 4.80189C6.66583 4.80189 7.20575 5.3382 7.20575 6.0001C7.20575 6.66156 6.66578 7.19781 5.99975 7.19781C5.33386 7.19781 4.79425 6.66169 4.79425 6.0001C4.79425 5.33807 5.3338 4.80189 5.99975 4.80189Z" fill="white"/>
</svg>
