<svg width="100" height="100" viewBox="0 0 100 100" fill="none" xmlns="http://www.w3.org/2000/svg">
<path d="M5.56211 37.5284C4.17996 56.8284 49.6014 73.2605 66.9157 74.4962C84.23 75.7319 85.9121 55.0891 87.2942 35.7891C88.6728 16.4891 51.5621 8.76765 34.2478 7.53194C16.9335 6.29623 6.94068 18.2248 5.56211 37.5284V37.5284Z" fill="#CFC1FF"/>
<path d="M69.644 92.8573C56.844 92.8573 46.4297 82.443 46.4297 69.643C46.4297 56.843 56.844 46.4287 69.644 46.4287C82.444 46.4287 92.8583 56.843 92.8583 69.643C92.8583 82.443 82.444 92.8573 69.644 92.8573ZM69.644 50.0001C58.8118 50.0001 50.0011 58.8109 50.0011 69.643C50.0011 80.4751 58.8118 89.2859 69.644 89.2859C80.4761 89.2859 89.2868 80.4751 89.2868 69.643C89.2868 58.8109 80.4761 50.0001 69.644 50.0001Z" fill="black"/>
<path d="M66.0731 78.571C65.6017 78.571 65.1445 78.3817 64.8088 78.0496L57.666 70.9067C56.9695 70.2103 56.9695 69.0781 57.666 68.3817C58.3624 67.6853 59.4945 67.6853 60.191 68.3817L65.9838 74.1746L77.2267 61.3246C77.8767 60.5817 79.0052 60.5067 79.7481 61.1567C80.491 61.8067 80.566 62.9353 79.916 63.6781L67.416 77.9639C67.091 78.3353 66.6231 78.5567 66.1302 78.571C66.1124 78.571 66.091 78.571 66.0731 78.571V78.571ZM41.0731 60.7139H14.2874C10.3481 60.7139 7.14453 57.5103 7.14453 53.571V17.8567C7.14453 13.9174 10.3481 10.7139 14.2874 10.7139H78.5731C82.5124 10.7139 85.716 13.9174 85.716 17.8567V41.071C85.716 42.0567 84.916 42.8567 83.9302 42.8567C82.9445 42.8567 82.1445 42.0567 82.1445 41.071V17.8567C82.1445 15.8889 80.541 14.2853 78.5731 14.2853H14.2874C12.3195 14.2853 10.716 15.8889 10.716 17.8567V53.571C10.716 55.5389 12.3195 57.1424 14.2874 57.1424H41.0731C42.0588 57.1424 42.8588 57.9424 42.8588 58.9281C42.8588 59.9139 42.0588 60.7139 41.0731 60.7139Z" fill="black"/>
<path d="M46.429 41.3503C45.1218 41.3503 43.8147 41.0539 42.6218 40.4646L8.1361 23.386C7.25039 22.9467 6.88968 21.8753 7.32539 20.9931C7.7611 20.111 8.82896 19.7467 9.71825 20.1824L44.2004 37.261C45.5968 37.9503 47.254 37.9503 48.6504 37.261L83.1325 20.1824C84.0147 19.7431 85.0861 20.1074 85.5254 20.9931C85.9647 21.8753 85.6004 22.9467 84.7147 23.386L50.2325 40.4646C49.0432 41.0539 47.7361 41.3503 46.429 41.3503Z" fill="black"/>
</svg>
