<svg width="20" height="20" viewBox="0 0 20 20" fill="none" xmlns="http://www.w3.org/2000/svg">
<path fill-rule="evenodd" clip-rule="evenodd" d="M18.3289 5.65899C18.9985 6.17799 19.4093 6.94899 19.4793 7.78799L19.4893 7.98899V16.098C19.4893 18.188 17.8391 19.888 15.7712 19.998H13.7822C12.8317 19.979 12.0631 19.239 11.9932 18.309L11.9832 18.168V15.309C11.9832 14.998 11.7523 14.739 11.4434 14.688L11.3535 14.678H8.68388C8.36505 14.688 8.10518 14.918 8.06521 15.218L8.05521 15.309V18.159C8.05521 18.218 8.04422 18.288 8.03522 18.338L8.02523 18.359L8.01423 18.428C7.89529 19.279 7.19566 19.928 6.32611 19.989L6.19618 19.998H4.40711C2.3182 19.998 0.609088 18.359 0.499146 16.298V7.98899C0.508141 7.13799 0.878948 6.34799 1.49862 5.79799L7.72538 0.787988C8.99472 -0.221012 10.7738 -0.261012 12.0821 0.667988L12.243 0.787988L18.3289 5.65899ZM18.089 16.258L18.1 16.098V7.99799C18.089 7.56899 17.9101 7.16799 17.6002 6.86899L17.4703 6.75799L11.3735 1.87799C10.6139 1.26799 9.53444 1.23899 8.73486 1.76799L8.58393 1.87799L2.5071 6.77899C2.15828 7.03799 1.94839 7.42799 1.89842 7.83799L1.88742 7.99799V16.098C1.88742 17.428 2.92688 18.518 4.24719 18.598H6.19618C6.41606 18.598 6.60596 18.449 6.63495 18.239L6.65594 18.059L6.66593 18.008V15.309C6.66593 14.239 7.48551 13.369 8.53496 13.288H11.3535C12.4219 13.288 13.2915 14.109 13.3724 15.159V18.168C13.3724 18.378 13.5224 18.559 13.7223 18.598H15.5803C16.9196 18.598 18.009 17.569 18.089 16.258Z" fill="black"/>
</svg>
