<svg width="73" height="72" viewBox="0 0 73 72" fill="none" xmlns="http://www.w3.org/2000/svg">
<path d="M30.1861 47.7005C29.9903 47.7005 29.7991 47.5982 29.6956 47.4159C29.1308 46.4192 28.4547 45.5237 27.6852 44.7542C26.9157 43.9847 26.0202 43.3085 25.0235 42.7438C24.7546 42.5919 24.659 42.251 24.8097 41.981L25.8987 40.0202C25.9707 39.8885 26.0933 39.7929 26.2373 39.7524C26.3802 39.7108 26.5355 39.7288 26.666 39.803C27.9428 40.5219 29.0881 41.3848 30.0702 42.3669C31.0422 43.3389 31.9017 44.4864 32.6251 45.779C32.6971 45.9095 32.7162 46.0637 32.6746 46.2077C32.633 46.3517 32.5373 46.4732 32.4068 46.5452L30.4572 47.6285C30.3717 47.678 30.2783 47.7005 30.1861 47.7005ZM26.0585 42.0497C26.9517 42.6032 27.7651 43.2444 28.4806 43.9588C29.1961 44.6732 29.8362 45.4865 30.3897 46.3809L31.3595 45.842C30.7497 44.8385 30.05 43.9385 29.2748 43.1634C28.4918 42.3804 27.5941 41.6773 26.6018 41.0709L26.0585 42.0497Z" fill="#12355B"/>
<path d="M33.2091 48.7163C32.9796 48.7163 32.7647 48.5757 32.6815 48.3484C31.9446 46.3471 30.8196 44.5808 29.338 43.0992C27.8575 41.6187 26.0912 40.4926 24.0887 39.7546C23.803 39.6488 23.6533 39.3361 23.7501 39.0469C25.5028 33.8416 28.366 29.2268 32.2573 25.3354C38.8363 18.7564 47.5888 15.0732 56.9016 14.9652C57.0321 14.9596 57.1986 15.0226 57.3055 15.1294C57.4123 15.2363 57.472 15.3826 57.4697 15.5333C57.3617 24.8472 53.6785 33.5986 47.1006 40.1776C43.2081 44.0701 38.5945 46.9332 33.3891 48.6859C33.3295 48.7073 33.2676 48.7163 33.2091 48.7163ZM30.1322 42.3038C31.6015 43.7731 32.7456 45.5011 33.5365 47.4451C38.3683 45.7351 42.6625 43.0249 46.3041 39.3833C52.5366 33.1508 56.0848 24.9023 56.3323 16.1026C47.5326 16.3501 39.2852 19.8983 33.0516 26.1319C29.4111 29.7736 26.6998 34.0666 24.9898 38.8996C26.9372 39.6916 28.6641 40.8346 30.1322 42.3038Z" fill="#12355B"/>
<path d="M55.0371 26.989C54.8931 26.989 54.7491 26.9339 54.6388 26.8248L45.6118 17.7978C45.3925 17.5784 45.3925 17.2218 45.6118 17.0024C45.8312 16.783 46.1878 16.783 46.4072 17.0024L55.4342 26.0294C55.6536 26.2488 55.6536 26.6054 55.4342 26.8248C55.324 26.9339 55.18 26.989 55.0371 26.989ZM16.0941 39.2459C15.9602 39.2459 15.8286 39.1987 15.7228 39.1064C15.5507 38.9557 15.4877 38.716 15.562 38.5C16.3225 36.2928 17.5341 34.3465 19.1642 32.7153C22.033 29.8465 25.8467 28.267 29.9035 28.267C30.1183 28.267 30.3152 28.3897 30.4097 28.5843C30.5042 28.7789 30.4795 29.0084 30.3456 29.1772C28.225 31.8704 26.5217 34.8832 25.2831 38.1333C25.1773 38.4089 24.8781 38.5529 24.5968 38.4719C21.8372 37.6507 18.9066 37.906 16.345 39.1863C16.2662 39.2268 16.1796 39.2459 16.0941 39.2459ZM28.7346 29.4404C25.4192 29.7115 22.3378 31.1324 19.9596 33.5118C18.7637 34.7077 17.8097 36.0903 17.1156 37.6304C19.4477 36.7732 21.9823 36.6404 24.418 37.2569C25.5306 34.459 26.9785 31.8367 28.7346 29.4404ZM33.8792 57.0322C33.7195 57.0322 33.5653 56.9647 33.4562 56.8409C33.3055 56.6688 33.274 56.4224 33.3763 56.2188C34.6577 53.6572 34.9108 50.7265 34.0907 47.9658C34.0075 47.6834 34.1548 47.3842 34.4293 47.2795C37.6806 46.0398 40.6933 44.3365 43.3843 42.217C43.5542 42.0832 43.7837 42.0584 43.9783 42.1529C44.173 42.2474 44.2956 42.4432 44.2956 42.6592C44.2956 46.7159 42.7161 50.5308 39.8473 53.3984C38.2183 55.0274 36.2721 56.239 34.0626 57.0018C34.003 57.0232 33.9411 57.0322 33.8792 57.0322ZM35.3068 48.1447C35.9233 50.5803 35.7906 53.1138 34.9333 55.447C36.4757 54.7518 37.8561 53.7989 39.052 52.603C41.4302 50.2248 42.8511 47.1434 43.1233 43.8292C40.7271 45.5842 38.1047 47.0332 35.3068 48.1447ZM42.9658 33.9685C41.8138 33.9685 40.6618 33.5298 39.7843 32.6523C38.0293 30.8973 38.0293 28.0432 39.7843 26.2882C41.4831 24.5883 44.4486 24.5872 46.1485 26.2882C47.9035 28.0432 47.9035 30.8973 46.1485 32.6523C45.2698 33.5298 44.1178 33.9685 42.9658 33.9685ZM42.9658 26.0947C42.0636 26.0947 41.2165 26.4457 40.5786 27.0835C39.2635 28.3998 39.2635 30.5407 40.5786 31.8569C41.8937 33.172 44.0346 33.172 45.352 31.8569C46.6671 30.5407 46.6671 28.3998 45.352 27.0835C44.7141 26.4457 43.867 26.0947 42.9658 26.0947ZM16.2021 56.797C16.0558 56.797 15.9118 56.7397 15.8038 56.6328C15.6441 56.473 15.5946 56.2323 15.6812 56.023L19.4297 46.8262C20.2881 44.7213 22.528 43.5243 24.7543 43.9709C24.7622 43.972 24.7712 43.9743 24.7791 43.9765L24.7858 43.9777C26.632 44.35 28.0855 45.8035 28.4646 47.6744C28.9168 49.9087 27.7153 52.1485 25.6105 53.0058L16.4147 56.7554C16.345 56.7835 16.273 56.797 16.2021 56.797ZM23.815 45.0014C22.3716 45.0014 21.0328 45.871 20.4703 47.2503L17.227 55.2097L25.1852 51.9652C26.7906 51.3115 27.7052 49.6038 27.3621 47.905C27.073 46.4718 25.9637 45.3637 24.5383 45.0757L24.5316 45.0745C24.292 45.0239 24.0523 45.0014 23.815 45.0014Z" fill="#12355B"/>
<path d="M21.0279 51.9712C20.8817 51.9712 20.7377 51.9139 20.6297 51.807C20.4699 51.6472 20.4204 51.4065 20.5071 51.1972L22.5253 46.2461C23.0338 44.9985 24.3658 44.2886 25.6832 44.553V44.5541C26.8104 44.7926 27.6598 45.6499 27.8837 46.7501C28.1503 48.0754 27.4382 49.404 26.1917 49.9125L21.2406 51.9307C21.1719 51.9577 21.0999 51.9712 21.0279 51.9712ZM25.1263 45.6217C24.4536 45.6217 23.8292 46.0267 23.5671 46.6702L22.0539 50.3839L25.7664 48.8707C26.5146 48.5659 26.9421 47.7694 26.7812 46.9762C26.6462 46.308 26.1287 45.7905 25.4638 45.6566H25.4604C25.3479 45.633 25.2366 45.6217 25.1263 45.6217Z" fill="#12355B"/>
</svg>
