<svg width="28" height="28" viewBox="0 0 28 28" fill="none" xmlns="http://www.w3.org/2000/svg">
<path fill-rule="evenodd" clip-rule="evenodd" d="M14.7139 2.33203H13.2736C12.4624 2.33203 11.6846 2.64884 11.1124 3.21237C10.6052 3.71185 10.2949 4.37039 10.2351 5.07114L10.2252 5.29747C10.2141 6.03447 9.61894 6.60943 8.8884 6.60936C8.72272 6.60763 8.55065 6.56981 8.39224 6.49855L8.23686 6.41736C6.80144 5.61056 4.93513 6.10475 4.09297 7.5373L3.33574 8.75681C2.53056 10.1259 2.92769 11.8459 4.22745 12.7318L4.40821 12.8455C4.85373 13.0985 5.10841 13.5308 5.10841 13.9987C5.10841 14.429 4.89271 14.8313 4.53297 15.0753L4.41016 15.1507C3.06356 15.9135 2.53299 17.5969 3.20987 18.9972L3.3088 19.1836L4.05209 20.4415C4.43843 21.1251 5.10048 21.64 5.88348 21.8581C6.57749 22.0514 7.31814 21.998 7.97477 21.7085L8.18239 21.6069C8.53185 21.4089 8.89286 21.3614 9.2317 21.4503C9.57054 21.5392 9.85912 21.757 10.0333 22.0554C10.1293 22.2142 10.1857 22.3779 10.2058 22.5476L10.2157 22.7199C10.214 24.3228 11.5838 25.6654 13.2736 25.6654H14.7143C16.3098 25.6654 17.634 24.4641 17.7636 22.9137L17.773 22.7135C17.7721 22.3262 17.9119 21.9932 18.1621 21.748C18.4123 21.5028 18.7521 21.3657 19.1059 21.3674C19.2685 21.3719 19.4472 21.4118 19.6128 21.4843L19.7715 21.5645C21.1108 22.3222 22.8657 21.9329 23.7695 20.659L23.8855 20.4819L24.6548 19.2259C25.069 18.5292 25.1811 17.7107 24.972 16.9422C24.7867 16.261 24.3618 15.6667 23.7736 15.2635L23.5789 15.1412C23.2405 14.9495 23.0175 14.6646 22.9265 14.3305C22.8356 13.9963 22.8844 13.6404 23.062 13.3416C23.1603 13.1734 23.2911 13.0334 23.448 12.9262L23.7481 12.7414C24.9632 11.9328 25.4182 10.3414 24.7786 9.00352L24.7123 8.87323C24.698 8.83925 24.6814 8.80612 24.6625 8.77406L23.9474 7.55786C23.1517 6.20441 21.4313 5.67917 19.9969 6.34011L19.8058 6.43682C19.463 6.63339 19.1011 6.68308 18.7603 6.59636C18.4196 6.50964 18.128 6.29365 17.9499 5.996C17.8585 5.84505 17.8021 5.68129 17.782 5.51161L17.7721 5.3393C17.7972 4.60666 17.4854 3.82164 16.909 3.24053C16.3326 2.65942 15.5408 2.3317 14.7139 2.33203ZM13.2736 4.02106H14.7143C15.0758 4.02091 15.4216 4.16404 15.6733 4.41783C15.925 4.67162 16.0612 5.01447 16.0508 5.36827L16.0661 5.66233C16.1183 6.11185 16.2529 6.50291 16.4656 6.85422C16.8729 7.53496 17.5435 8.03174 18.3272 8.23118C19.1109 8.43062 19.9434 8.31634 20.6411 7.91354L20.7614 7.85346L20.8908 7.80265C21.4604 7.61532 22.1316 7.85241 22.4542 8.40113L23.1362 9.56216L23.151 9.59487L23.2335 9.75067C23.5095 10.3296 23.2788 11.0619 22.6817 11.4042L22.4942 11.5199C22.0966 11.7906 21.7917 12.117 21.5698 12.4967C21.1644 13.1786 21.0523 13.9971 21.2614 14.7657C21.4515 15.4643 21.8928 16.0693 22.5 16.4715L22.8175 16.6682C23.0415 16.8228 23.2263 17.0812 23.3069 17.3774C23.3978 17.7115 23.349 18.0674 23.1714 18.3662L22.4199 19.5937L22.3354 19.7232C21.9876 20.2121 21.3016 20.3937 20.7232 20.1449L20.3547 19.9604C19.9437 19.7791 19.5416 19.6894 19.1331 19.6787C18.3004 19.6746 17.5189 19.9897 16.9435 20.5536C16.3681 21.1176 16.0466 21.8836 16.0505 22.6811L16.0439 22.8084C15.9895 23.4514 15.4109 23.9763 14.7143 23.9763H13.2736C12.5848 23.9763 12.0177 23.4656 11.9452 22.8094L11.9217 22.3969C11.8696 21.9474 11.7349 21.5563 11.5222 21.205C11.1267 20.5273 10.46 20.024 9.6772 19.8187C8.89437 19.6134 8.06029 19.723 7.36036 20.1233L7.23357 20.1841C6.9812 20.2945 6.65771 20.3178 6.35461 20.2334C6.01265 20.1382 5.72351 19.9133 5.55118 19.6085L4.81732 18.3677L4.75168 18.2434C4.47369 17.6667 4.7045 16.9344 5.30262 16.5952L5.48432 16.4833C6.33794 15.9051 6.83175 14.984 6.83175 13.9987C6.83175 12.9988 6.32376 12.0698 5.48637 11.5149L5.18232 11.3262C4.64506 10.9591 4.47152 10.2075 4.8185 9.61735L5.57573 8.39782C5.95399 7.75487 6.76907 7.53904 7.4083 7.89803L7.63264 8.014C8.05166 8.20378 8.46256 8.2941 8.87936 8.29834C10.4963 8.29855 11.8185 7.08138 11.9391 5.53045L11.9548 5.17474C11.9785 4.90734 12.1134 4.62099 12.3339 4.40382C12.5827 4.15881 12.9208 4.02106 13.2736 4.02106ZM13.9992 10.1858C11.8506 10.1858 10.1088 11.8929 10.1088 13.9987C10.1088 16.1045 11.8506 17.8116 13.9992 17.8116C16.1477 17.8116 17.8895 16.1045 17.8895 13.9987C17.8895 11.8929 16.1477 10.1858 13.9992 10.1858ZM13.9992 11.8749C15.196 11.8749 16.1662 12.8257 16.1662 13.9987C16.1662 15.1717 15.196 16.1225 13.9992 16.1225C12.8024 16.1225 11.8322 15.1717 11.8322 13.9987C11.8322 12.8257 12.8024 11.8749 13.9992 11.8749Z" fill="#12355B"/>
</svg>
