<svg width="319" height="58" viewBox="0 0 319 58" fill="none" xmlns="http://www.w3.org/2000/svg">
<path d="M112.12 31.056V8.4H118.6V30.768C118.6 32.624 119.128 34.08 120.184 35.136C121.24 36.192 122.76 36.72 124.744 36.72C126.728 36.72 128.248 36.208 129.304 35.184C130.392 34.128 130.936 32.688 130.936 30.864V8.4H137.416V31.056C137.416 34.768 136.28 37.648 134.008 39.696C131.736 41.712 128.648 42.72 124.744 42.72C120.84 42.72 117.752 41.712 115.48 39.696C113.24 37.648 112.12 34.768 112.12 31.056ZM150.147 42H143.907V16.56H149.907V19.008H150.003C150.707 18.08 151.667 17.328 152.883 16.752C154.131 16.144 155.411 15.84 156.723 15.84C159.539 15.84 161.747 16.688 163.347 18.384C164.947 20.048 165.747 22.368 165.747 25.344V42H159.507V26.88C159.507 25.088 159.155 23.76 158.451 22.896C157.779 22.032 156.643 21.6 155.043 21.6C153.507 21.6 152.307 22.048 151.443 22.944C150.579 23.808 150.147 24.976 150.147 26.448V42ZM178.459 42H172.219V16.56H178.459V42ZM178.459 12.864H172.219V6.96H178.459V12.864ZM275.356 33.216L279.724 37.056C277.132 40.832 273.628 42.72 269.212 42.72C265.66 42.72 262.764 41.504 260.524 39.072C258.284 36.64 257.164 33.376 257.164 29.28C257.164 25.216 258.268 21.968 260.476 19.536C262.748 17.072 265.564 15.84 268.924 15.84C272.316 15.84 275.1 17.072 277.276 19.536C279.484 21.968 280.588 25.216 280.588 29.28V31.152H263.5C263.596 33.104 264.124 34.608 265.084 35.664C266.076 36.688 267.42 37.2 269.116 37.2C270.46 37.2 271.596 36.88 272.524 36.24C273.484 35.568 274.428 34.56 275.356 33.216ZM263.5 26.496H274.54C274.38 24.864 273.804 23.6 272.812 22.704C271.852 21.776 270.556 21.312 268.924 21.312C267.42 21.312 266.172 21.808 265.18 22.8C264.188 23.76 263.628 24.992 263.5 26.496ZM283.69 33.6L289.306 32.16C289.722 35.712 291.626 37.488 295.018 37.488C296.554 37.488 297.77 37.248 298.666 36.768C299.594 36.256 300.058 35.552 300.058 34.656C300.058 33.888 299.706 33.344 299.002 33.024C298.17 32.576 296.698 32.064 294.586 31.488C294.426 31.456 293.962 31.328 293.194 31.104C290.186 30.24 288.01 29.248 286.666 28.128C285.322 26.976 284.65 25.472 284.65 23.616C284.65 21.504 285.498 19.68 287.194 18.144C288.922 16.608 291.274 15.84 294.25 15.84C299.946 15.84 303.514 18.336 304.954 23.328L299.77 24.912C299.29 23.6 298.618 22.624 297.754 21.984C296.922 21.312 295.77 20.976 294.298 20.976C293.114 20.976 292.154 21.2 291.418 21.648C290.682 22.096 290.314 22.656 290.314 23.328C290.314 24 290.73 24.56 291.562 25.008C292.458 25.392 294.586 26.064 297.946 27.024C300.954 27.856 302.97 28.88 303.994 30.096C305.082 31.28 305.626 32.848 305.626 34.8C305.626 36.848 304.73 38.688 302.938 40.32C301.146 41.92 298.586 42.72 295.258 42.72C291.706 42.72 288.986 41.84 287.098 40.08C285.21 38.288 284.074 36.128 283.69 33.6Z" fill="#5832DA"/>
<path d="M192.693 42H186.453V21.84H182.517V16.56H186.597V12.96C186.597 10.816 187.141 9.28 188.229 8.352C189.349 7.424 191.029 6.96 193.269 6.96H198.261V12.48H194.565C193.797 12.48 193.253 12.64 192.933 12.96C192.645 13.248 192.501 13.76 192.501 14.496V16.56H198.933V21.84H192.693V42ZM222.041 42H216.809V39.552H216.713C216.713 39.584 216.633 39.712 216.473 39.936C216.345 40.128 216.105 40.384 215.753 40.704C215.401 41.024 214.969 41.328 214.457 41.616C213.977 41.904 213.321 42.16 212.489 42.384C211.657 42.608 210.761 42.72 209.801 42.72C206.857 42.72 204.585 42.016 202.985 40.608C201.417 39.2 200.633 37.392 200.633 35.184C200.633 33.008 201.273 31.344 202.553 30.192C203.865 29.008 206.105 28.032 209.273 27.264C212.281 26.528 214.105 25.968 214.745 25.584C215.481 25.136 215.849 24.544 215.849 23.808C215.849 23.008 215.481 22.368 214.745 21.888C214.009 21.376 212.937 21.12 211.529 21.12C209.929 21.12 208.745 21.472 207.977 22.176C207.209 22.848 206.601 23.888 206.153 25.296L200.969 23.136C201.609 20.928 202.825 19.168 204.617 17.856C206.409 16.512 208.681 15.84 211.433 15.84C214.569 15.84 217.113 16.656 219.065 18.288C221.049 19.92 222.041 22.448 222.041 25.872V42ZM210.521 31.584C209.017 31.936 207.993 32.368 207.449 32.88C206.905 33.392 206.633 34.016 206.633 34.752C206.633 36.48 207.881 37.344 210.377 37.344C212.201 37.344 213.593 37.008 214.553 36.336C215.545 35.632 216.041 34.72 216.041 33.6V29.184H215.945C215.753 29.504 215.609 29.712 215.513 29.808C215.033 30.288 213.369 30.88 210.521 31.584ZM234.522 42H228.282V16.56H234.522V42ZM234.522 12.864H228.282V6.96H234.522V12.864ZM247.459 42H241.219V16.56H247.123V19.248H247.219C247.699 18.288 248.403 17.52 249.331 16.944C250.291 16.368 251.331 16.08 252.451 16.08C253.315 16.08 254.083 16.24 254.755 16.56L253.795 22.608C253.027 22.352 252.371 22.224 251.827 22.224C248.915 22.224 247.459 24.16 247.459 28.032V42Z" fill="#5832DA" fill-opacity="0.5"/>
<path d="M1 29.3489C0.999781 8.66049 27.5971 -6.50447 47.5442 7.32046C35.0194 3.37029 20.0785 13.8185 20.4838 29.3489C20.9477 47.1234 38.7302 55.1549 47.5439 51.3771C35.7922 60.3404 1.0003 57.9097 1 29.3489Z" fill="#5832DA" stroke="black" stroke-width="0.3"/>
<path d="M73.8502 29.3487C73.8502 41.4293 63.8814 51.227 51.5787 51.227C39.276 51.227 29.3072 41.4293 29.3072 29.3487C29.3072 17.2681 39.276 7.47031 51.5787 7.47031C63.8814 7.47031 73.8502 17.2681 73.8502 29.3487Z" fill="#5832DA" fill-opacity="0.5" stroke="black" stroke-width="0.3"/>
</svg>
