<svg width="20" height="14" viewBox="0 0 20 14" fill="none" xmlns="http://www.w3.org/2000/svg">
<path fill-rule="evenodd" clip-rule="evenodd" d="M7.98896 9.58601V3.97437C9.98116 4.9118 11.5241 5.81733 13.349 6.79365C11.8439 7.62837 9.98116 8.56481 7.98896 9.58601ZM19.091 1.18289C18.7473 0.730127 18.1616 0.37809 17.5381 0.26141C15.7052 -0.0866377 4.27097 -0.087635 2.43914 0.26141C1.9391 0.355153 1.49384 0.581533 1.11134 0.933569C-0.50036 2.42947 0.0046643 10.4515 0.393145 11.751C0.556506 12.3134 0.767679 12.7193 1.03364 12.9856C1.3763 13.3376 1.84546 13.58 2.38435 13.6887C3.89345 14.0008 11.668 14.1753 17.5062 13.7355C18.0441 13.6418 18.5202 13.3915 18.8958 13.0245C20.3859 11.5345 20.2843 3.06174 19.091 1.18289Z" fill="#5832DA"/>
</svg>
